<svg width="20" height="20" viewBox="0 0 20 20" fill="none" xmlns="http://www.w3.org/2000/svg">
<path d="M4.06446 6.2753C5.29055 4.30482 7.32914 3.15588 9.47043 2.99104L8.47862 2.1252C8.32677 1.99264 8.31068 1.76155 8.44268 1.60905L8.86096 1.12584C8.99296 0.973344 9.22307 0.957184 9.37492 1.08975L11.8685 3.26658C12.0203 3.39914 12.0364 3.63023 11.9044 3.78273L9.7368 6.28689C9.6048 6.43938 9.37469 6.45554 9.22284 6.32298L8.74167 5.90293C8.58982 5.77036 8.57372 5.53928 8.70573 5.38678L9.59698 4.35716C7.86405 4.48345 6.21354 5.4105 5.22305 7.00235C3.63937 9.54753 4.31745 12.8683 6.71216 14.5934C6.87565 14.7112 6.9286 14.9361 6.82197 15.1075L6.48412 15.6505C6.3775 15.8218 6.15207 15.8747 5.98712 15.759C2.95298 13.6306 2.0808 9.46329 4.06446 6.2753Z" fill="#5C6A79"/>
<path d="M14.7769 12.9976C16.3606 10.4525 15.6825 7.13166 13.2878 5.40655C13.1244 5.28878 13.0714 5.06385 13.178 4.89249L13.5159 4.34951C13.6225 4.17816 13.8479 4.12529 14.0129 4.241C17.047 6.36937 17.9192 10.5367 15.9355 13.7247C14.7091 15.6957 12.6698 16.8447 10.5279 17.0091L11.5196 17.8748C11.6715 18.0074 11.6876 18.2384 11.5556 18.3909L11.1373 18.8742C11.0053 19.0267 10.7752 19.0428 10.6233 18.9103L8.12976 16.7334C7.97791 16.6009 7.96182 16.3698 8.09382 16.2173L10.2614 13.7131C10.3934 13.5606 10.6236 13.5445 10.7754 13.677L11.2566 14.0971C11.4084 14.2296 11.4245 14.4607 11.2925 14.6132L10.4012 15.643C12.1348 15.5172 13.7861 14.5901 14.7769 12.9976Z" fill="#5C6A79"/>
</svg>
