<svg width="32" height="32" viewBox="0 0 32 32" fill="none" xmlns="http://www.w3.org/2000/svg">
    <path d="M3.75 1.75C2.64543 1.75 1.75 2.64543 1.75 3.75V22.25C1.75 23.3546 2.64543 24.25 3.75 24.25H28.25C29.3546 24.25 30.25 23.3546 30.25 22.25V3.75C30.25 2.64543 29.3546 1.75 28.25 1.75H3.75Z"
          />
    <path fill-rule="evenodd" clip-rule="evenodd"
          d="M8.75 29C8.75 28.3096 9.30964 27.75 10 27.75H22C22.6904 27.75 23.25 28.3096 23.25 29C23.25 29.6904 22.6904 30.25 22 30.25H10C9.30964 30.25 8.75 29.6904 8.75 29Z"
          />
    <path d="M21.7644 12.7479C22.1146 12.6979 22.178 12.2191 21.8528 12.0797L10.9191 7.39391C10.5872 7.25167 10.2517 7.58724 10.3939 7.91913L15.0797 18.8528C15.2191 19.178 15.6979 19.1146 15.7479 18.7644L16.4629 13.7598C16.4849 13.6059 16.6059 13.4849 16.7598 13.4629L21.7644 12.7479Z"
          fill="url(#paint0_linear)"/>
    <defs>
        <linearGradient id="paint0_linear" x1="12.555" y1="7.36035" x2="21.6875" y2="9.44883"
                        gradientUnits="userSpaceOnUse">
            <stop stop-color="#89A6BE"/>
            <stop offset="0.789654" stop-color="#68869F"/>
        </linearGradient>
    </defs>
</svg>
