<svg width="32" height="32" viewBox="0 0 32 32" fill="none" xmlns="http://www.w3.org/2000/svg">
<g filter="url(#filter0_d)">
<path d="M11.5313 7.03034C11.2384 6.73745 10.7635 6.73745 10.4706 7.03034L6.35448 11.1465C6.0395 11.4614 6.26258 12 6.70803 12H9.00093V24.5C9.00093 24.7762 9.22478 25 9.50093 25H12.5009C12.7771 25 13.0009 24.7762 13.0009 24.5V12H15.2938C15.7393 12 15.9624 11.4614 15.6474 11.1465L11.5313 7.03034Z" fill="white"/>
<path d="M19.0009 18L19.0009 5.5C19.0009 5.22386 19.2248 5 19.5009 5H22.5009C22.7771 5 23.0009 5.22386 23.0009 5.5L23.0009 18H25.2938C25.7393 18 25.9624 18.5386 25.6474 18.8536L21.5313 22.9697C21.2384 23.2626 20.7635 23.2626 20.4706 22.9697L16.3545 18.8536C16.0395 18.5386 16.2626 18 16.708 18H19.0009Z" fill="url(#paint0_linear)"/>
</g>
<defs>
<filter id="filter0_d" x="-2" y="-2" width="36" height="36" filterUnits="userSpaceOnUse" color-interpolation-filters="sRGB">
<feFlood flood-opacity="0" result="BackgroundImageFix"/>
<feColorMatrix in="SourceAlpha" type="matrix" values="0 0 0 0 0 0 0 0 0 0 0 0 0 0 0 0 0 0 127 0"/>
<feOffset dy="1"/>
<feGaussianBlur stdDeviation="3"/>
<feColorMatrix type="matrix" values="0 0 0 0 0.237656 0 0 0 0 0.293125 0 0 0 0 0.3375 0 0 0 0.08 0"/>
<feBlend mode="normal" in2="BackgroundImageFix" result="effect1_dropShadow"/>
<feBlend mode="normal" in="SourceGraphic" in2="effect1_dropShadow" result="shape"/>
</filter>
<linearGradient id="paint0_linear" x1="18.0047" y1="5" x2="25.764" y2="5.93533" gradientUnits="userSpaceOnUse">
<stop stop-color="#89A6BE"/>
<stop offset="0.789654" stop-color="#68869F"/>
</linearGradient>
</defs>
</svg>
