<svg viewBox="0 0 24 24" fill="none" xmlns="http://www.w3.org/2000/svg">
<path fill-rule="evenodd" clip-rule="evenodd" d="M13.5593 3.23373C15.2043 1.58876 17.8713 1.58876 19.5163 3.23373C21.1612 4.8787 21.1612 7.54573 19.5163 9.1907L11.0542 17.6528C10.0852 18.6217 8.51429 18.6217 7.54536 17.6528C6.57642 16.6839 6.57642 15.1129 7.54536 14.144L13.9851 7.70427C14.278 7.41138 14.7528 7.41138 15.0457 7.70427C15.3386 7.99717 15.3386 8.47204 15.0457 8.76493L8.60602 15.2046C8.22287 15.5878 8.22287 16.209 8.60602 16.5921C8.98916 16.9753 9.61036 16.9753 9.99351 16.5921L18.4556 8.13004C19.5148 7.07085 19.5148 5.35357 18.4556 4.29439C17.3964 3.2352 15.6791 3.2352 14.62 4.29439L6.05142 12.8629C4.31619 14.5982 4.31619 17.4115 6.05142 19.1467C7.78664 20.882 10.6 20.882 12.3352 19.1467L18.8814 12.6006C19.1743 12.3077 19.6491 12.3077 19.942 12.6006C20.2349 12.8935 20.2349 13.3683 19.942 13.6612L13.3959 20.2074C11.0749 22.5284 7.31177 22.5284 4.99076 20.2074C2.66975 17.8864 2.66975 14.1233 4.99076 11.8023L13.5593 3.23373Z" fill="#5C6A79"/>
</svg>
