<svg width="32" height="32" viewBox="0 0 32 32" fill="none" xmlns="http://www.w3.org/2000/svg">
    <path fill-rule="evenodd" clip-rule="evenodd"
          d="M5.5 1.5C4.11929 1.5 3 2.61929 3 4V28C3 29.3807 4.11929 30.5 5.5 30.5H26.5C27.8807 30.5 29 29.3807 29 28V4C29 2.61929 27.8807 1.5 26.5 1.5H5.5ZM7.35 4.5C6.60442 4.5 6 5.10442 6 5.85V11.15C6 11.8956 6.60442 12.5 7.35 12.5H24.65C25.3956 12.5 26 11.8956 26 11.15V5.85C26 5.10442 25.3956 4.5 24.65 4.5H7.35ZM7.35 15C6.60442 15 6 15.6044 6 16.35V18.65C6 19.3956 6.60442 20 7.35 20H9.65C10.3956 20 11 19.3956 11 18.65V16.35C11 15.6044 10.3956 15 9.65 15H7.35ZM6 23.85C6 23.1044 6.60442 22.5 7.35 22.5H9.65C10.3956 22.5 11 23.1044 11 23.85V26.15C11 26.8956 10.3956 27.5 9.65 27.5H7.35C6.60442 27.5 6 26.8956 6 26.15V23.85ZM14.85 15C14.1044 15 13.5 15.6044 13.5 16.35V18.65C13.5 19.3956 14.1044 20 14.85 20H17.15C17.8956 20 18.5 19.3956 18.5 18.65V16.35C18.5 15.6044 17.8956 15 17.15 15H14.85ZM13.5 23.85C13.5 23.1044 14.1044 22.5 14.85 22.5H17.15C17.8956 22.5 18.5 23.1044 18.5 23.85V26.15C18.5 26.8956 17.8956 27.5 17.15 27.5H14.85C14.1044 27.5 13.5 26.8956 13.5 26.15V23.85ZM22.35 15C21.6044 15 21 15.6044 21 16.35V18.65C21 19.3956 21.6044 20 22.35 20H24.65C25.3956 20 26 19.3956 26 18.65V16.35C26 15.6044 25.3956 15 24.65 15H22.35ZM21 23.85C21 23.1044 21.6044 22.5 22.35 22.5H24.65C25.3956 22.5 26 23.1044 26 23.85V26.15C26 26.8956 25.3956 27.5 24.65 27.5H22.35C21.6044 27.5 21 26.8956 21 26.15V23.85Z"
          />
    <path d="M6 5.75C6 5.05964 6.55964 4.5 7.25 4.5H24.75C25.4404 4.5 26 5.05964 26 5.75V11.25C26 11.9404 25.4404 12.5 24.75 12.5H7.25C6.55964 12.5 6 11.9404 6 11.25V5.75Z"
          fill="url(#paint0_linear)"/>
    <defs>
        <linearGradient id="paint0_linear" x1="9.75" y1="4.5" x2="22.1258" y2="11.5754" gradientUnits="userSpaceOnUse">
            <stop stop-color="#89A6BE"/>
            <stop offset="0.789654" stop-color="#68869F"/>
        </linearGradient>
    </defs>
</svg>
