<svg width="16" height="16" viewBox="0 0 16 16" fill="none" xmlns="http://www.w3.org/2000/svg">
<path d="M13.9697 10.2242C13.099 10.2242 12.244 10.088 11.4338 9.82025C11.0368 9.68484 10.5488 9.80906 10.3065 10.0579L8.70734 11.2651C6.85278 10.2751 5.71041 9.13314 4.73397 7.29251L5.90563 5.73503C6.21004 5.43103 6.31923 4.98695 6.18841 4.57029C5.91952 3.75584 5.78293 2.90129 5.78293 2.03018C5.78297 1.40088 5.27101 0.888916 4.64175 0.888916H2.02989C1.40063 0.888916 0.888672 1.40088 0.888672 2.03014C0.888672 9.2431 6.75675 15.1111 13.9697 15.1111C14.599 15.1111 15.1109 14.5992 15.1109 13.9699V11.3654C15.1109 10.7361 14.5989 10.2242 13.9697 10.2242Z" fill="#B5BFCD"/>
</svg>
