<svg width="32" height="32" viewBox="0 0 32 32" fill="none" xmlns="http://www.w3.org/2000/svg">
    <path fill-rule="evenodd" clip-rule="evenodd"
          d="M17.1191 3C16.3973 3 15.6997 3.26022 15.1543 3.73293L2.03521 15.1028C1.37772 15.6726 1 16.4998 1 17.3699V27C1 28.1046 1.89543 29 3 29H29C30.1046 29 31 28.1046 31 27V5C31 3.89543 30.1046 3 29 3H17.1191ZM17.9018 5.5C17.3204 5.5 16.7589 5.711 16.3214 6.09382L6.00147 15.1237C5.65402 15.4277 5.86904 16 6.33072 16H27.3C27.9627 16 28.5 15.4627 28.5 14.8V6.7C28.5 6.03726 27.9627 5.5 27.3 5.5H17.9018Z"
          />
    <path d="M21 19.01C21 18.4522 21.4522 18 22.01 18H27.49C28.0478 18 28.5 18.4522 28.5 19.01V19.49C28.5 20.0478 28.0478 20.5 27.49 20.5H22.01C21.4522 20.5 21 20.0478 21 19.49V19.01Z"
          fill="url(#paint0_linear)"/>
    <defs>
        <linearGradient id="paint0_linear" x1="22.4063" y1="18" x2="26.5933" y2="20.8726"
                        gradientUnits="userSpaceOnUse">
            <stop stop-color="#89A6BE"/>
            <stop offset="0.789654" stop-color="#68869F"/>
        </linearGradient>
    </defs>
</svg>
