<svg width="24" height="24" viewBox="0 0 24 24" fill="none" xmlns="http://www.w3.org/2000/svg">
<path d="M2 4.60252C2 3.71747 2.71634 3 3.6 3H16.4C17.2837 3 18 3.71747 18 4.60252V12.6151C18 13.5002 17.2837 14.2177 16.4 14.2177H9.34031C9.24948 14.2177 9.16136 14.2486 9.09043 14.3055L5.84988 16.902C5.58797 17.1118 5.2 16.9251 5.2 16.5892V14.6183C5.2 14.397 5.02091 14.2177 4.8 14.2177H3.6C2.71634 14.2177 2 13.5002 2 12.6151V4.60252Z" fill="white"/>
<path d="M6.42811 18.3257C6.15987 18.513 5.97921 18.828 6.08396 19.1383C6.29771 19.7714 6.89571 20.2271 7.6 20.2271H14.6597C14.7505 20.2271 14.8386 20.2581 14.9096 20.3149L18.1501 22.9115C18.412 23.1213 18.8 22.9345 18.8 22.5986V20.6278C18.8 20.4065 18.9791 20.2271 19.2 20.2271H20.4C21.2837 20.2271 22 19.5097 22 18.6246V10.612C22 9.72694 21.2837 9.00946 20.4 9.00946H20C19.7239 9.00946 19.5 9.23368 19.5 9.51025V12.6151C19.5 14.3299 18.1121 15.72 16.4 15.72H10.4277C9.97359 15.72 9.53297 15.8748 9.17834 16.159L6.78692 18.0751L6.42811 18.3257Z" fill="white"/>
</svg>
