<svg width="34" height="34" viewBox="0 0 34 34" fill="none" xmlns="http://www.w3.org/2000/svg">
    <g filter="url(#filter0_d)">
        <path d="M6 16C6 9.92487 10.9249 5 17 5C23.0751 5 28 9.92487 28 16C28 22.0751 23.0751 27 17 27C10.9249 27 6 22.0751 6 16Z"
              fill="white"/>
        <path fill-rule="evenodd" clip-rule="evenodd"
              d="M16.75 8.5C17.3023 8.5 17.75 8.94772 17.75 9.5V15.0973L21.536 13.1142C22.0252 12.8579 22.6296 13.0468 22.8858 13.536C23.1421 14.0252 22.9532 14.6296 22.464 14.8858L17.5068 17.4825C16.7078 17.901 15.75 17.3215 15.75 16.4195V9.5C15.75 8.94772 16.1977 8.5 16.75 8.5Z"
              fill="url(#paint0_linear)"/>
    </g>
    <defs>
        <filter id="filter0_d" x="-1" y="-1" width="36" height="36" filterUnits="userSpaceOnUse"
                color-interpolation-filters="sRGB">
            <feFlood flood-opacity="0" result="BackgroundImageFix"/>
            <feColorMatrix in="SourceAlpha" type="matrix" values="0 0 0 0 0 0 0 0 0 0 0 0 0 0 0 0 0 0 127 0"/>
            <feOffset dy="1"/>
            <feGaussianBlur stdDeviation="3"/>
            <feColorMatrix type="matrix" values="0 0 0 0 0.237656 0 0 0 0 0.293125 0 0 0 0 0.3375 0 0 0 0.08 0"/>
            <feBlend mode="normal" in2="BackgroundImageFix" result="effect1_dropShadow"/>
            <feBlend mode="normal" in="SourceGraphic" in2="effect1_dropShadow" result="shape"/>
        </filter>
        <linearGradient id="paint0_linear" x1="17.1094" y1="8.5" x2="22.8718" y2="9.54747"
                        gradientUnits="userSpaceOnUse">
            <stop stop-color="#89A6BE"/>
            <stop offset="0.789654" stop-color="#68869F"/>
        </linearGradient>
    </defs>
</svg>
