<svg width="32" height="32" viewBox="0 0 32 32" fill="none" xmlns="http://www.w3.org/2000/svg">
    <path d="M4.00001 7.44045C4.00002 6.57961 4.55088 5.81645 5.36755 5.54422L14.7351 2.4217C15.5562 2.14801 16.4439 2.14801 17.2649 2.4217L26.6325 5.54421C27.4492 5.81644 28 6.57941 28 7.44028C28 8.9562 28 11.5948 28 15.0001C28 25.5617 18.7043 29.1516 16.4759 29.8604C16.1631 29.9599 15.837 29.9599 15.5242 29.8604C13.2958 29.1516 4.00019 25.5617 4.00004 15.0001C3.99999 11.6086 4 8.96162 4.00001 7.44045Z"
          />
    <path d="M25.9999 8.52254C25.9999 7.87689 25.5867 7.30369 24.9742 7.09951L16.9873 4.43714C16.5016 4.27525 16.0001 4.63672 16.0001 5.14864L16 15.9999H25.2499C25.6641 15.9999 25.9999 15.6641 25.9999 15.2499V8.52254Z"
          fill="url(#paint0_linear)"/>
    <path d="M15.9683 16L15.9684 26.8828C15.9685 27.3914 15.4734 27.7502 15.0032 27.5559C14.9588 27.5376 14.9122 27.5182 14.8627 27.4976C13.8479 27.0747 12.5029 26.4008 11.1685 25.4C8.84985 23.661 6.58701 20.9692 6.07565 16.7978C6.0229 16.3674 6.36816 16 6.80172 16H15.9683Z"
          fill="url(#paint1_linear)"/>
    <defs>
        <linearGradient id="paint0_linear" x1="17.875" y1="4.39807" x2="25.7783" y2="5.95589"
                        gradientUnits="userSpaceOnUse">
            <stop stop-color="#89A6BE"/>
            <stop offset="0.789654" stop-color="#68869F"/>
        </linearGradient>
        <linearGradient id="paint1_linear" x1="7.92621" y1="16" x2="15.7554" y2="17.5265"
                        gradientUnits="userSpaceOnUse">
            <stop stop-color="#89A6BE"/>
            <stop offset="0.789654" stop-color="#68869F"/>
        </linearGradient>
    </defs>
</svg>
