<svg width="32" height="32" viewBox="0 0 32 32" fill="none" xmlns="http://www.w3.org/2000/svg">
    <path d="M3.2067 12.0747C3.49909 11.9923 3.74846 11.7534 3.7645 11.4501C4.05025 6.04485 8.52357 1.75 14 1.75H18C23.4764 1.75 27.9498 6.04485 28.2355 11.4501C28.2515 11.7534 28.5009 11.9923 28.7933 12.0747C29.6339 12.3114 30.25 13.0837 30.25 14V20C30.25 20.9163 29.6339 21.6886 28.7933 21.9253C28.5009 22.0077 28.25 22.2462 28.25 22.55V22.9999C28.25 25.8994 25.8995 28.2499 23 28.2499H18.7325C18.3867 28.8478 17.7403 29.25 17 29.25H15C13.8954 29.25 13 28.3546 13 27.25V26.75C13 25.6454 13.8954 24.75 15 24.75H17C17.7402 24.75 18.3866 25.1522 18.7324 25.7499H23C24.5188 25.7499 25.75 24.5187 25.75 22.9999V12C25.75 7.71979 22.2802 4.25 18 4.25H14C9.71979 4.25 6.25 7.71979 6.25 12V20C6.25 21.1046 5.35457 22 4.25 22H3.75C2.64543 22 1.75 21.1046 1.75 20V14C1.75 13.0837 2.36614 12.3114 3.2067 12.0747Z"
          />
    <path d="M10 15.5C10 14.6716 10.6716 14 11.5 14C12.3284 14 13 14.6716 13 15.5C13 16.3284 12.3284 17 11.5 17C10.6716 17 10 16.3284 10 15.5Z"
          fill="url(#paint0_linear)"/>
    <path d="M15 15.5C15 14.6716 15.6716 14 16.5 14C17.3284 14 18 14.6716 18 15.5C18 16.3284 17.3284 17 16.5 17C15.6716 17 15 16.3284 15 15.5Z"
          fill="url(#paint1_linear)"/>
    <path d="M20 15.5C20 14.6716 20.6716 14 21.5 14C22.3284 14 23 14.6716 23 15.5C23 16.3284 22.3284 17 21.5 17C20.6716 17 20 16.3284 20 15.5Z"
          fill="url(#paint2_linear)"/>
    <defs>
        <linearGradient id="paint0_linear" x1="10.5625" y1="14" x2="12.9032" y2="14.5353"
                        gradientUnits="userSpaceOnUse">
            <stop stop-color="#89A6BE"/>
            <stop offset="0.789654" stop-color="#68869F"/>
        </linearGradient>
        <linearGradient id="paint1_linear" x1="15.5625" y1="14" x2="17.9032" y2="14.5353"
                        gradientUnits="userSpaceOnUse">
            <stop stop-color="#89A6BE"/>
            <stop offset="0.789654" stop-color="#68869F"/>
        </linearGradient>
        <linearGradient id="paint2_linear" x1="20.5625" y1="14" x2="22.9032" y2="14.5353"
                        gradientUnits="userSpaceOnUse">
            <stop stop-color="#89A6BE"/>
            <stop offset="0.789654" stop-color="#68869F"/>
        </linearGradient>
    </defs>
</svg>
