<svg width="32" height="32" viewBox="0 0 32 32" fill="none" xmlns="http://www.w3.org/2000/svg">
    <path d="M3.02637 13.2932L1.28456 12.9861C0.850424 12.9095 0.536859 13.3915 0.782716 13.7574L3.17563 17.3187C3.41295 17.6719 3.89626 17.7571 4.24007 17.5064L7.70671 14.9782C8.06288 14.7185 7.93305 14.1584 7.49892 14.0819L5.49028 13.7277C6.53304 8.88193 10.8422 5.25 15.9997 5.25C19.9771 5.25 23.4517 7.40946 25.3123 10.6259L27.4763 9.37409C25.1872 5.41692 20.9056 2.75 15.9997 2.75C9.6095 2.75 4.27588 7.2736 3.02637 13.2932Z"
          />
    <path d="M15.9997 26.75C21.1571 26.75 25.4663 23.1181 26.5091 18.2723L24.5004 17.9181C24.0663 17.8416 23.9364 17.2815 24.2926 17.0218L27.7593 14.4936C28.1031 14.2429 28.5864 14.3281 28.8237 14.6813L31.2166 18.2426C31.4625 18.6085 31.1489 19.0905 30.7148 19.0139L28.973 18.7068C27.7234 24.7264 22.3898 29.25 15.9997 29.25C11.0937 29.25 6.81214 26.5831 4.52304 22.6259L6.68706 21.3741C8.54767 24.5905 12.0222 26.75 15.9997 26.75Z"
          />
    <path d="M11 13.75C11 13.3358 11.3358 13 11.75 13H20.25C20.6642 13 21 13.3358 21 13.75V14.5C21 14.9142 20.6642 15.25 20.25 15.25H11.75C11.3358 15.25 11 14.9142 11 14.5V13.75Z"
          fill="url(#paint0_linear)"/>
    <path d="M11 18.5C11 18.0858 11.3358 17.75 11.75 17.75H20.25C20.6642 17.75 21 18.0858 21 18.5V19.25C21 19.6642 20.6642 20 20.25 20H11.75C11.3358 20 11 19.6642 11 19.25V18.5Z"
          fill="url(#paint1_linear)"/>
    <defs>
        <linearGradient id="paint0_linear" x1="12.875" y1="13" x2="20.2937" y2="15.4236" gradientUnits="userSpaceOnUse">
            <stop stop-color="#89A6BE"/>
            <stop offset="0.789654" stop-color="#68869F"/>
        </linearGradient>
        <linearGradient id="paint1_linear" x1="12.875" y1="13" x2="20.2937" y2="15.4236" gradientUnits="userSpaceOnUse">
            <stop stop-color="#89A6BE"/>
            <stop offset="0.789654" stop-color="#68869F"/>
        </linearGradient>
    </defs>
</svg>
