<svg width="19" height="22" viewBox="0 0 19 22" fill="none" xmlns="http://www.w3.org/2000/svg">
<path fill-rule="evenodd" clip-rule="evenodd" d="M1.5 0C0.671573 0 0 0.671573 0 1.5V18.5C0 19.3284 0.671568 20 1.49999 20L7.7903 20C7.86453 20 7.91302 19.9219 7.88159 19.8547C7.48962 19.016 7.26501 18.0835 7.25073 17.1C7.24992 17.0448 7.20523 17 7.15 17H3.25C2.83579 17 2.5 16.6642 2.5 16.25V15.75C2.5 15.3358 2.83579 15 3.25 15H7.47751C7.52134 15 7.55999 14.9714 7.57342 14.9297C7.84273 14.0931 8.27088 13.3277 8.82234 12.6691C8.87784 12.6028 8.8315 12.5 8.74505 12.5H3.25C2.83579 12.5 2.5 12.1642 2.5 11.75V11.25C2.5 10.8358 2.83579 10.5 3.25 10.5H12.1598C12.169 10.5 12.178 10.4987 12.1868 10.4963C12.7638 10.3358 13.3719 10.25 14 10.25C14.6488 10.25 15.2762 10.3415 15.87 10.5124C15.9347 10.531 16 10.4829 16 10.4156V7.03553C16 6.37249 15.7366 5.73661 15.2678 5.26777L10.7322 0.732233C10.2634 0.263392 9.62751 0 8.96447 0H1.5ZM3.25 8C2.83579 8 2.5 7.66421 2.5 7.25V6.75C2.5 6.33579 2.83579 6 3.25 6H10.25C10.6642 6 11 6.33579 11 6.75V7.25C11 7.66421 10.6642 8 10.25 8H3.25ZM19 17C19 19.7614 16.7614 22 14 22C11.2386 22 9 19.7614 9 17C9 14.2386 11.2386 12 14 12C16.7614 12 19 14.2386 19 17ZM15.8081 15.3081C16.0521 15.064 16.4479 15.064 16.6919 15.3081C16.936 15.5521 16.936 15.9479 16.6919 16.1919L13.6919 19.1919C13.4479 19.436 13.0521 19.436 12.8081 19.1919L11.5581 17.9419C11.314 17.6979 11.314 17.3021 11.5581 17.0581C11.8021 16.814 12.1979 16.814 12.4419 17.0581L13.25 17.8661L15.8081 15.3081Z" fill="#B5BFCD"/>
</svg>
