<svg width="16" height="20" viewBox="0 0 16 20" fill="none" xmlns="http://www.w3.org/2000/svg">
<path fill-rule="evenodd" clip-rule="evenodd" d="M1.5 0C0.671573 0 0 0.671573 0 1.5V18.5C0 19.3284 0.671568 20 1.49999 20L14.5 20.0001C15.3284 20.0001 16 19.3285 16 18.5001V7.03553C16 6.37249 15.7366 5.73661 15.2678 5.26777L10.7322 0.732233C10.2634 0.263392 9.62751 0 8.96447 0H1.5ZM3.25 8C2.83579 8 2.5 7.66421 2.5 7.25V6.75C2.5 6.33579 2.83579 6 3.25 6H10.25C10.6642 6 11 6.33579 11 6.75V7.25C11 7.66421 10.6642 8 10.25 8H3.25ZM12.75 12.5C13.1642 12.5 13.5 12.1642 13.5 11.75V11.25C13.5 10.8358 13.1642 10.5 12.75 10.5H3.25C2.83579 10.5 2.5 10.8358 2.5 11.25V11.75C2.5 12.1642 2.83579 12.5 3.25 12.5H12.75ZM12.75 17C13.1642 17 13.5 16.6642 13.5 16.25V15.75C13.5 15.3358 13.1642 15 12.75 15H3.25C2.83579 15 2.5 15.3358 2.5 15.75V16.25C2.5 16.6642 2.83579 17 3.25 17H12.75Z" fill="url(#paint0_linear)"/>
<defs>
<linearGradient id="paint0_linear" x1="3" y1="-1.80579e-06" x2="15.7113" y2="2.32551" gradientUnits="userSpaceOnUse">
<stop stop-color="#89A6BE"/>
<stop offset="0.789654" stop-color="#68869F"/>
</linearGradient>
</defs>
</svg>
