<svg width="32" height="32" viewBox="0 0 32 32" fill="none" xmlns="http://www.w3.org/2000/svg">
    <path d="M9.75 3.25C9.75 2.14543 10.6454 1.25 11.75 1.25H21.7159C22.2041 1.25 22.6754 1.42855 23.041 1.75201L29.5751 7.53219C30.0043 7.91181 30.25 8.45724 30.25 9.03019V24.75C30.25 25.8546 29.3546 26.75 28.25 26.75H11.75C10.6454 26.75 9.75 25.8546 9.75 24.75V3.25Z"
          />
    <path d="M7.25 7.75H4.25V28.25H18.25C18.6642 28.25 19 28.5858 19 29V30C19 30.4142 18.6642 30.75 18.25 30.75H3.75C2.64543 30.75 1.75 29.8546 1.75 28.75V7.25C1.75 6.14543 2.64543 5.25 3.75 5.25H7.25C7.66421 5.25 8 5.58579 8 6V7C8 7.41421 7.66421 7.75 7.25 7.75Z"
          />
    <path fill-rule="evenodd" clip-rule="evenodd"
          d="M13.5 15.5C13.5 15.0858 13.8358 14.75 14.25 14.75H25.75C26.1642 14.75 26.5 15.0858 26.5 15.5V16.25C26.5 16.6642 26.1642 17 25.75 17H14.25C13.8358 17 13.5 16.6642 13.5 16.25V15.5Z"
          fill="url(#paint0_linear)"/>
    <path fill-rule="evenodd" clip-rule="evenodd"
          d="M13.5 10.5C13.5 10.0858 13.8358 9.75 14.25 9.75H20.75C21.1642 9.75 21.5 10.0858 21.5 10.5V11.25C21.5 11.6642 21.1642 12 20.75 12H14.25C13.8358 12 13.5 11.6642 13.5 11.25V10.5Z"
          fill="url(#paint1_linear)"/>
    <path fill-rule="evenodd" clip-rule="evenodd"
          d="M13.5 20.5C13.5 20.0858 13.8358 19.75 14.25 19.75H25.75C26.1642 19.75 26.5 20.0858 26.5 20.5V21.25C26.5 21.6642 26.1642 22 25.75 22H14.25C13.8358 22 13.5 21.6642 13.5 21.25V20.5Z"
          fill="url(#paint2_linear)"/>
    <defs>
        <linearGradient id="paint0_linear" x1="15.9375" y1="14.75" x2="19.8247" y2="19.8862"
                        gradientUnits="userSpaceOnUse">
            <stop stop-color="#89A6BE"/>
            <stop offset="0.789654" stop-color="#68869F"/>
        </linearGradient>
        <linearGradient id="paint1_linear" x1="15" y1="9.75" x2="18.9541" y2="12.9651" gradientUnits="userSpaceOnUse">
            <stop stop-color="#89A6BE"/>
            <stop offset="0.789654" stop-color="#68869F"/>
        </linearGradient>
        <linearGradient id="paint2_linear" x1="15.9375" y1="19.75" x2="19.8247" y2="24.8862"
                        gradientUnits="userSpaceOnUse">
            <stop stop-color="#89A6BE"/>
            <stop offset="0.789654" stop-color="#68869F"/>
        </linearGradient>
    </defs>
</svg>
