<svg width="14" height="18" viewBox="0 0 14 18" fill="none" xmlns="http://www.w3.org/2000/svg">
<path fill-rule="evenodd" clip-rule="evenodd" d="M5.95628 10L5.95625 0.250001C5.95625 0.111929 6.06818 0 6.20625 0H7.79359C7.93166 0 8.04358 0.111928 8.04359 0.249999L8.04362 10L12.3472 5.69642C12.4448 5.59879 12.6031 5.59879 12.7008 5.69642L13.8232 6.81883C13.9208 6.91647 13.9208 7.07476 13.8232 7.17239L7.17673 13.8188C7.0791 13.9165 6.92081 13.9165 6.82317 13.8188L0.176728 7.17239C0.079097 7.07476 0.0790969 6.91647 0.176728 6.81883L1.29915 5.69642C1.39678 5.59879 1.55507 5.59879 1.6527 5.69642L5.95628 10Z" fill="#F15045"/>
<path fill-rule="evenodd" clip-rule="evenodd" d="M14 17.75C14 17.8881 13.8881 18 13.75 18H0.25C0.111929 18 0 17.8881 0 17.75V16.25C0 16.1119 0.111929 16 0.25 16H13.75C13.8881 16 14 16.1119 14 16.25V17.75Z" fill="#F15045"/>
</svg>
