<svg width="16" height="16" viewBox="0 0 16 16" fill="none" xmlns="http://www.w3.org/2000/svg">
<path d="M13.3565 5.72323C12.965 6.11476 12.7692 6.31053 12.5337 6.35396C12.4414 6.37098 12.3468 6.37098 12.2544 6.35396C12.019 6.31053 11.8232 6.11476 11.4317 5.72323L10.2768 4.56833C9.88524 4.1768 9.68947 3.98103 9.64604 3.74557C9.62902 3.65324 9.62902 3.55858 9.64604 3.46626C9.68947 3.2308 9.88524 3.03503 10.2768 2.6435C10.6683 2.25197 10.8641 2.0562 11.0995 2.01277C11.1919 1.99574 11.2865 1.99574 11.3788 2.01277C11.6143 2.0562 11.8101 2.25197 12.2016 2.6435L13.3565 3.7984C13.748 4.18993 13.9438 4.38569 13.9872 4.62116C14.0043 4.71348 14.0043 4.80814 13.9872 4.90047C13.9438 5.13593 13.748 5.3317 13.3565 5.72323Z" fill="#5C6A79"/>
<path d="M3.53986 14C2.81397 14 2.45102 14 2.22551 13.7745C2 13.549 2 13.186 2 12.4601V11.5581C2 11.2434 2 11.086 2.05861 10.9445C2.11722 10.8031 2.22848 10.6918 2.45102 10.4693L7.45558 5.4647C7.96886 4.95141 8.22551 4.69476 8.54442 4.69476C8.86334 4.69476 9.11998 4.95141 9.63327 5.46469L10.5353 6.36673C11.0486 6.88001 11.3052 7.13666 11.3052 7.45558C11.3052 7.77449 11.0486 8.03114 10.5353 8.54442L5.53074 13.549C5.30821 13.7715 5.19694 13.8828 5.05545 13.9414C4.91396 14 4.75661 14 4.4419 14H3.53986Z" fill="#5C6A79"/>
</svg>
