<svg viewBox="0 0 20 20" fill="none" xmlns="http://www.w3.org/2000/svg">
<path d="M12.3419 3.98132C12.7481 3.5752 13.4065 3.5752 13.8126 3.98132L16.0187 6.18736C16.4248 6.59349 16.4248 7.25194 16.0187 7.65806L7.19451 16.4822C6.78839 16.8883 6.12994 16.8883 5.72382 16.4822L3.51778 14.2762C3.11166 13.8701 3.11166 13.2116 3.51778 12.8055L12.3419 3.98132Z" fill="#B5BFCD"/>
<path d="M16.0187 0.304591C16.4248 -0.10153 17.0832 -0.10153 17.4894 0.304591L19.6954 2.51063C20.1015 2.91675 20.1015 3.5752 19.6954 3.98132L18.2247 5.45202C17.8186 5.85814 17.1601 5.85814 16.754 5.45202L14.548 3.24598C14.1419 2.83986 14.1419 2.1814 14.548 1.77528L16.0187 0.304591Z" fill="#B5BFCD"/>
<path d="M1.37524 15.0551C1.54193 14.5553 2.17631 14.4054 2.54879 14.7779L5.22212 17.4512C5.59459 17.8237 5.44473 18.4581 4.94488 18.6248L0.933954 19.9624C0.379868 20.1471 -0.147147 19.6201 0.0376351 19.066L1.37524 15.0551Z" fill="#B5BFCD"/>
</svg>
