<svg width="17" height="18" viewBox="0 0 17 18" fill="none" xmlns="http://www.w3.org/2000/svg">
<path fill-rule="evenodd" clip-rule="evenodd" d="M7 0.25C6.58579 0.25 6.25 0.585786 6.25 1C6.25 1.41421 6.58579 1.75 7 1.75H15C15.1381 1.75 15.25 1.86193 15.25 2V16C15.25 16.1381 15.1381 16.25 15 16.25H7C6.58579 16.25 6.25 16.5858 6.25 17C6.25 17.4142 6.58579 17.75 7 17.75H15C15.9665 17.75 16.75 16.9665 16.75 16V2C16.75 1.0335 15.9665 0.25 15 0.25H7ZM9.03033 4.46967C8.73744 4.17678 8.26256 4.17678 7.96967 4.46967C7.67678 4.76256 7.67678 5.23744 7.96967 5.53033L10.6893 8.25H1.5C1.08579 8.25 0.75 8.58579 0.75 9C0.75 9.41421 1.08579 9.75 1.5 9.75H10.6893L7.96967 12.4697C7.67678 12.7626 7.67678 13.2374 7.96967 13.5303C8.26256 13.8232 8.73744 13.8232 9.03033 13.5303L13.0303 9.53033C13.3232 9.23744 13.3232 8.76256 13.0303 8.46967L9.03033 4.46967Z" fill="#B5BFCD"/>
</svg>
