<svg viewBox="0 0 24 24" fill="none" xmlns="http://www.w3.org/2000/svg">
<path fill-rule="evenodd" clip-rule="evenodd" d="M2.08696 5.21739H9.91304C10.2012 5.21739 10.4348 4.9838 10.4348 4.69565V3.65217C10.4348 3.36403 10.2012 3.13043 9.91304 3.13043H1.56522C0.700771 3.13043 0 3.83121 0 4.69565V22.4348C0 23.2992 0.700773 24 1.56522 24H19.3043C20.1688 24 20.8696 23.2992 20.8696 22.4348V14.087C20.8696 13.7988 20.636 13.5652 20.3478 13.5652H19.3043C19.0162 13.5652 18.7826 13.7988 18.7826 14.087V21.913H2.08696V5.21739Z" fill="#B5BFCD"/>
<path fill-rule="evenodd" clip-rule="evenodd" d="M20.4373 2.08696H15.1304C14.8423 2.08696 14.6087 1.85337 14.6087 1.56522V0.521739C14.6087 0.233591 14.8423 0 15.1304 0H23.4783C23.7664 0 24 0.233591 24 0.521739V8.86957C24 9.15771 23.7664 9.3913 23.4783 9.3913H22.4348C22.1466 9.3913 21.913 9.15771 21.913 8.86957V3.56266L11.5416 13.9341C11.3378 14.1379 11.0075 14.1379 10.8037 13.9341L10.0659 13.1963C9.86211 12.9925 9.86211 12.6622 10.0659 12.4584L20.4373 2.08696Z" fill="#B5BFCD"/>
</svg>
