<svg width="16" height="16" viewBox="0 0 16 16" fill="none" xmlns="http://www.w3.org/2000/svg">
    <path fill-rule="evenodd" clip-rule="evenodd"
          d="M2.22266 6.12967C2.22266 2.74433 4.90895 0 8.22266 0C11.5364 0 14.2227 2.74433 14.2227 6.12967C14.2227 7.46352 13.8051 8.69908 13.0964 9.70561L13.0937 9.7094L8.62884 15.7925C8.42577 16.0692 8.01955 16.0692 7.81647 15.7925L3.35162 9.7094L3.34895 9.70561C2.64019 8.69908 2.22266 7.46352 2.22266 6.12967ZM8.22266 9C9.87951 9 11.2227 7.65685 11.2227 6C11.2227 4.34315 9.87951 3 8.22266 3C6.5658 3 5.22266 4.34315 5.22266 6C5.22266 7.65685 6.5658 9 8.22266 9Z"
    />
</svg>
