<svg width="32" height="32" viewBox="0 0 32 32" fill="none" xmlns="http://www.w3.org/2000/svg">
<rect width="32" height="32" fill="white"/>
<path d="M15.8953 31.1802C24.2542 31.1802 31.0304 24.404 31.0304 16.0452C31.0304 7.68633 24.2542 0.910156 15.8953 0.910156C10.638 0.910156 6.00739 3.59119 3.29438 7.66013C5.57078 5.16415 8.84917 3.59781 12.4935 3.59781C19.368 3.59781 24.9409 9.17069 24.9409 16.0452C24.9409 22.9197 19.368 28.4926 12.4935 28.4926C8.84917 28.4926 5.57078 26.9262 3.29438 24.4302C6.00739 28.4992 10.638 31.1802 15.8953 31.1802Z" fill="#E30016"/>
<path d="M12.1393 26.4218C6.40847 26.4218 1.7627 21.776 1.7627 16.0452C1.7627 10.3143 6.40847 5.66853 12.1393 5.66853C15.7438 5.66853 18.9186 7.50667 20.7786 10.2963C19.2179 8.5851 16.9702 7.51121 14.4716 7.51121C9.75844 7.51121 5.93765 11.332 5.93765 16.0452C5.93765 20.7584 9.75844 24.5792 14.4716 24.5792C16.9702 24.5792 19.2179 23.5053 20.7786 21.794C18.9186 24.5837 15.7438 26.4218 12.1393 26.4218Z" fill="#E30016"/>
<path fill-rule="evenodd" clip-rule="evenodd" d="M11.7933 17.2547L12.4993 19.0585H13.1821L10.9515 13.3637H10.3967L8.15451 19.0585H8.82175L9.52002 17.2547H11.7933ZM10.9282 14.9038L11.5877 16.6611H9.75278L10.42 14.9038C10.5261 14.6064 10.6075 14.3335 10.6644 14.0853C10.7549 14.4085 10.8429 14.6814 10.9282 14.9038Z" fill="#E30016"/>
<path d="M15.048 19.0585H15.7075V13.9728H17.5036V13.387H13.2519V13.9728H15.048V19.0585Z" fill="#E30016"/>
<path d="M18.361 13.387V19.0585H21.5226V18.4611H19.0205V13.387H18.361Z" fill="#E30016"/>
</svg>
