<?xml version="1.0" encoding="UTF-8"?>
<svg xmlns="http://www.w3.org/2000/svg" xmlns:xlink="http://www.w3.org/1999/xlink" width="112px" height="38px" viewBox="0 0 111 38" version="1.1">
    <g id="surface1">
        <path style=" stroke:none;fill-rule:nonzero;fill:rgb(9.411765%,23.137255%,33.72549%);fill-opacity:1;" d="M 21.65625 15.519531 C 23.808594 19.492188 21.847656 26.875 17.351562 30.351562 C 27.191406 27.992188 28.964844 17.152344 24.117188 11.917969 C 20.234375 7.730469 15.992188 7.964844 12.324219 8.871094 C 15.828125 9.621094 19.089844 10.789062 21.65625 15.519531 Z M 21.65625 15.519531 "/>
        <path style=" stroke:none;fill-rule:nonzero;fill:rgb(9.411765%,23.137255%,33.72549%);fill-opacity:1;" d="M 16.363281 6.453125 C 19.746094 7.136719 22.207031 9.683594 22.207031 9.683594 C 22.140625 9.617188 18.292969 6.652344 12.058594 8.46875 L 11.320312 6.269531 C 12.636719 6.128906 14.761719 6.132812 16.363281 6.453125 Z M 16.363281 6.453125 "/>
        <path style=" stroke:none;fill-rule:nonzero;fill:rgb(9.411765%,23.137255%,33.72549%);fill-opacity:1;" d="M 0.167969 19.472656 C 0.167969 18.242188 0.421875 17.242188 0.503906 16.941406 L 0.675781 16.386719 C 1.039062 17.050781 2.171875 18.621094 3.785156 19.589844 C 2.703125 19.753906 1.761719 19.769531 1.421875 19.753906 C 1.679688 20.257812 2.589844 21.332031 4.164062 21.578125 C 4.574219 24.105469 7.0625 27.171875 8.636719 28.511719 C 8.285156 29.238281 7.730469 31.0625 8.304688 32.566406 C 4.457031 30.195312 0.503906 25.1875 0.167969 19.472656 Z M 0.167969 19.472656 "/>
        <path style=" stroke:none;fill-rule:nonzero;fill:rgb(9.411765%,23.137255%,33.72549%);fill-opacity:1;" d="M 13.59375 28.589844 C 14.667969 30.214844 17.144531 31.632812 19.292969 32.355469 C 15.765625 31.964844 14.105469 30.367188 13.59375 28.589844 Z M 13.59375 28.589844 "/>
        <path style=" stroke:none;fill-rule:nonzero;fill:rgb(9.411765%,23.137255%,33.72549%);fill-opacity:1;" d="M 9.785156 27.25 C 9.398438 28.519531 8.453125 31.347656 9.246094 34.074219 C 7.585938 31.242188 8.914062 28.34375 9.785156 27.25 Z M 9.785156 27.25 "/>
        <path style=" stroke:none;fill-rule:nonzero;fill:rgb(9.411765%,23.137255%,33.72549%);fill-opacity:1;" d="M 17.640625 37.09375 C 19.636719 37.28125 23.101562 37.535156 27.1875 35.824219 C 23.855469 38.972656 19.4375 37.980469 17.640625 37.09375 Z M 17.640625 37.09375 "/>
        <path style=" stroke:none;fill-rule:nonzero;fill:rgb(94.509804%,31.372549%,27.058824%);fill-opacity:1;" d="M 5.246094 9.140625 C 6.058594 9.707031 6.8125 10.128906 6.8125 10.027344 C 3.417969 7.351562 3.925781 3.109375 4.601562 1.320312 L 5.023438 0 C 5.515625 2.585938 7.222656 8.289062 10.105469 10.441406 C 7.585938 6.90625 10.105469 3.722656 10.105469 3.152344 C 10.105469 3.027344 10.105469 4.835938 11.058594 7.738281 C 11.625 9.140625 12.148438 9.992188 12.484375 10.546875 C 13.152344 11.421875 14.601562 13.351562 15.054688 14.082031 C 15.738281 15.558594 15.765625 17.234375 15.140625 19.152344 L 14.695312 20.472656 C 14.96875 20.855469 16.546875 21.175781 17.355469 20.800781 C 17.5 20.160156 16.941406 20.011719 17.355469 20.011719 C 18.410156 20.011719 18.5 20.484375 18.78125 20.671875 C 19.097656 20.878906 19.109375 20.847656 19.425781 21.023438 C 20.046875 21.550781 20.191406 21.890625 19.910156 22.714844 C 18.742188 21.261719 17.574219 21.734375 17.355469 21.890625 C 16.964844 22.097656 16.441406 23.296875 15.777344 23.835938 C 15.089844 24.484375 14.476562 25.6875 12.339844 26.210938 C 12.207031 26.367188 12.148438 26.804688 12.753906 28.609375 C 13.269531 30.152344 14.597656 31.347656 16.355469 32.195312 C 18.664062 33.308594 20.25 33.390625 22.792969 32.550781 C 23.890625 32.183594 24.894531 31.523438 25.316406 31.234375 C 25.75 30.9375 28.582031 28.609375 29.652344 26.671875 C 29.304688 29.398438 27.519531 31.355469 26.960938 32.039062 C 24.808594 34.65625 20.515625 35.339844 16.617188 34.527344 C 16.683594 34.640625 17.175781 34.886719 17.707031 35.074219 C 18.929688 35.503906 21.921875 35.394531 23.507812 34.964844 C 24.113281 34.800781 25.621094 34.203125 25.652344 34.238281 C 25.6875 34.269531 24.214844 35.007812 23.59375 35.28125 C 21.621094 36.289062 16.648438 37.335938 12.535156 33.457031 C 13.4375 36.035156 16.824219 37.558594 18.402344 38 C 14.496094 37.539062 13.253906 36.578125 12.035156 35.46875 C 10.824219 34.371094 10.246094 33.484375 9.984375 31.710938 C 9.699219 29.769531 10.355469 28.226562 10.75 26.609375 C 10.179688 24.671875 10.207031 24.121094 9.398438 23.503906 C 8.945312 23.160156 7.144531 23.671875 6.230469 23.054688 C 5.984375 23.054688 7.363281 22.8125 7.652344 22.519531 C 6.210938 21.847656 5.878906 21.234375 5.84375 21.078125 C 5.683594 21.175781 4.285156 21.25 2.738281 20.273438 C 2.890625 20.132812 4.207031 20.273438 5.246094 19.636719 C 4.3125 18.925781 2.738281 17.921875 1.75 16.667969 C 2.867188 17.246094 4.816406 17.21875 4.816406 17.21875 C 1.652344 15.261719 1.066406 14.820312 0.585938 14.003906 C 0.375 13.640625 -0.0429688 12.796875 0.00390625 12.796875 C 0.046875 12.796875 0.863281 13.34375 1.5 13.6875 C 2.136719 14.035156 2.949219 14.40625 3.304688 14.511719 C 5.253906 15.082031 5.21875 14.96875 3.683594 14.082031 C 2.171875 13.207031 0.742188 11.4375 0.371094 9.652344 C 0.230469 9.265625 0.578125 9.699219 1.75 10.546875 C 3.222656 11.613281 4.71875 12.398438 5.613281 12.574219 C 6.25 12.695312 6.308594 12.804688 4.492188 11.65625 C 3.179688 10.824219 1.136719 8.9375 0.742188 7.738281 C 0.351562 6.554688 0.253906 3.957031 0.371094 3.339844 C 0.464844 2.863281 0.652344 3.675781 1.652344 5.191406 C 2.800781 6.941406 4.058594 8.324219 5.246094 9.140625 Z M 5.246094 9.140625 "/>
        <path style=" stroke:none;fill-rule:nonzero;fill:rgb(9.411765%,23.137255%,33.72549%);fill-opacity:1;" d="M 19.1875 31.949219 L 17.566406 30.847656 C 24.507812 28.96875 25.953125 24.199219 25.953125 24.199219 C 25.953125 24.199219 24.640625 29.011719 19.1875 31.949219 Z M 19.1875 31.949219 "/>
        <path style=" stroke:none;fill-rule:nonzero;fill:rgb(9.411765%,23.137255%,33.72549%);fill-opacity:1;" d="M 43.800781 12.324219 C 45.53125 12.324219 46.921875 12.960938 47.976562 14.234375 C 49.039062 15.5 49.570312 17.132812 49.570312 19.132812 C 49.570312 21.082031 49.042969 22.679688 47.988281 23.929688 C 46.933594 25.183594 45.539062 25.808594 43.800781 25.808594 L 43.800781 27.898438 L 40.660156 27.898438 L 40.660156 25.808594 C 39.480469 25.808594 38.457031 25.53125 37.585938 24.976562 C 36.726562 24.414062 36.054688 23.628906 35.570312 22.617188 C 35.089844 21.597656 34.847656 20.445312 34.847656 19.15625 C 34.847656 17.15625 35.375 15.519531 36.4375 14.246094 C 37.5 12.964844 38.910156 12.324219 40.660156 12.324219 L 40.660156 10.191406 L 43.800781 10.191406 Z M 40.492188 15.144531 C 39.699219 15.144531 39.070312 15.5 38.613281 16.210938 C 38.160156 16.925781 37.929688 17.90625 37.929688 19.15625 C 37.929688 20.324219 38.160156 21.253906 38.613281 21.941406 C 39.070312 22.632812 39.707031 22.976562 40.515625 22.976562 L 40.660156 22.976562 L 40.660156 15.144531 Z M 43.800781 15.144531 L 43.800781 22.976562 L 43.96875 22.976562 C 44.742188 22.976562 45.351562 22.632812 45.804688 21.941406 C 46.257812 21.246094 46.484375 20.308594 46.484375 19.132812 C 46.484375 17.898438 46.257812 16.925781 45.804688 16.210938 C 45.359375 15.5 44.734375 15.144531 43.933594 15.144531 Z M 43.800781 15.144531 "/>
        <path style=" stroke:none;fill-rule:nonzero;fill:rgb(9.411765%,23.137255%,33.72549%);fill-opacity:1;" d="M 57.59375 27.449219 C 55.972656 27.449219 54.710938 26.960938 53.804688 25.988281 C 52.902344 25.015625 52.449219 23.621094 52.449219 21.808594 L 52.449219 20.84375 C 52.449219 18.921875 52.863281 17.445312 53.695312 16.40625 C 54.523438 15.363281 55.71875 14.839844 57.269531 14.839844 C 58.785156 14.839844 59.921875 15.332031 60.6875 16.316406 C 61.453125 17.289062 61.839844 18.734375 61.855469 20.648438 L 61.855469 22.214844 L 55.585938 22.214844 C 55.632812 23.113281 55.828125 23.773438 56.179688 24.191406 C 56.527344 24.601562 57.066406 24.808594 57.792969 24.808594 C 58.847656 24.808594 59.726562 24.445312 60.433594 23.71875 L 61.667969 25.640625 C 61.28125 26.179688 60.71875 26.617188 59.984375 26.953125 C 59.25 27.285156 58.453125 27.449219 57.59375 27.449219 Z M 55.609375 19.988281 L 58.761719 19.988281 L 58.761719 19.695312 C 58.746094 18.96875 58.628906 18.417969 58.40625 18.042969 C 58.183594 17.671875 57.796875 17.484375 57.246094 17.484375 C 56.695312 17.484375 56.296875 17.679688 56.042969 18.078125 C 55.800781 18.476562 55.652344 19.113281 55.609375 19.988281 Z M 55.609375 19.988281 "/>
        <path style=" stroke:none;fill-rule:nonzero;fill:rgb(9.411765%,23.137255%,33.72549%);fill-opacity:1;" d="M 73.855469 27.222656 L 70.703125 27.222656 L 70.703125 22.558594 L 67.929688 22.558594 L 67.929688 27.222656 L 64.769531 27.222656 L 64.769531 15.066406 L 67.929688 15.066406 L 67.929688 19.933594 L 70.703125 19.933594 L 70.703125 15.066406 L 73.855469 15.066406 Z M 73.855469 27.222656 "/>
        <path style=" stroke:none;fill-rule:nonzero;fill:rgb(9.411765%,23.137255%,33.72549%);fill-opacity:1;" d="M 83.257812 15.066406 L 86.398438 15.066406 L 86.398438 27.222656 L 83.257812 27.222656 L 83.257812 19.753906 L 80.453125 27.222656 L 77.289062 27.222656 L 77.289062 15.066406 L 80.453125 15.066406 L 80.453125 22.527344 Z M 83.257812 15.066406 "/>
        <path style=" stroke:none;fill-rule:nonzero;fill:rgb(9.411765%,23.137255%,33.72549%);fill-opacity:1;" d="M 94.035156 22.761719 L 93.207031 22.761719 L 93.207031 27.222656 L 90.066406 27.222656 L 90.066406 15.066406 L 93.207031 15.066406 L 93.207031 19.628906 L 93.988281 19.628906 L 95.8125 15.066406 L 99.769531 15.066406 L 96.59375 20.675781 L 100.011719 27.222656 L 95.835938 27.222656 Z M 94.035156 22.761719 "/>
        <path style=" stroke:none;fill-rule:nonzero;fill:rgb(9.411765%,23.137255%,33.72549%);fill-opacity:1;" d="M 106.609375 24.808594 C 107.523438 24.808594 107.988281 24.207031 108 23.011719 L 110.964844 23.011719 C 110.949219 24.335938 110.542969 25.40625 109.75 26.222656 C 108.957031 27.039062 107.929688 27.449219 106.675781 27.449219 C 105.125 27.449219 103.941406 26.960938 103.125 25.988281 C 102.308594 25.015625 101.890625 23.578125 101.878906 21.683594 L 101.878906 20.71875 C 101.878906 18.808594 102.277344 17.351562 103.082031 16.347656 C 103.890625 15.34375 105.082031 14.839844 106.65625 14.839844 C 107.984375 14.839844 109.03125 15.257812 109.792969 16.089844 C 110.558594 16.914062 110.949219 18.085938 110.964844 19.605469 L 108 19.605469 C 107.996094 18.921875 107.882812 18.398438 107.667969 18.03125 C 107.453125 17.667969 107.09375 17.484375 106.597656 17.484375 C 106.050781 17.484375 105.65625 17.679688 105.417969 18.078125 C 105.179688 18.46875 105.054688 19.226562 105.039062 20.359375 L 105.039062 21.59375 C 105.039062 22.585938 105.089844 23.277344 105.183594 23.671875 C 105.28125 24.0625 105.441406 24.351562 105.664062 24.539062 C 105.886719 24.71875 106.203125 24.808594 106.609375 24.808594 Z M 106.609375 24.808594 "/>
    </g>
</svg>