<svg width="260" height="45" viewBox="0 0 260 45" fill="none" xmlns="http://www.w3.org/2000/svg">
<path fill-rule="evenodd" clip-rule="evenodd" d="M20.5659 43.9503C32.7287 43.9503 42.5891 34.1117 42.5891 21.9755C42.5891 9.83938 32.7287 0.000836174 20.5659 0.000836174C12.9158 0.000836174 6.17761 3.89317 2.23004 9.80149C5.54262 6.17741 10.3134 3.90343 15.6164 3.90343C25.6198 3.90343 33.7293 11.995 33.7293 21.9763C33.7293 31.9577 25.6198 40.0492 15.6164 40.0492C10.3134 40.0492 5.54341 37.7752 2.23004 34.1513C6.17761 40.0588 12.9158 43.9519 20.5659 43.9519V43.9503Z" fill="white"/>
<path fill-rule="evenodd" clip-rule="evenodd" d="M15.1 37.0406C6.76121 37.0406 0.000836174 30.2951 0.000836174 21.9748C0.000836174 13.6543 6.76121 6.90882 15.1 6.90882C20.3452 6.90882 24.9649 9.57731 27.6711 13.6275C25.3999 11.1428 22.1292 9.58362 18.4932 9.58362C11.6356 9.58362 6.0756 15.1306 6.0756 21.9739C6.0756 28.8173 11.6356 34.3641 18.4932 34.3641C22.1292 34.3641 25.3999 32.805 27.6711 30.3204C24.9642 34.3705 20.3443 37.039 15.1 37.039V37.0406Z" fill="white"/>
<path d="M104.357 6.72422V37.208H103.157V6.72422H104.357Z" fill="white"/>
<path d="M53.3019 8.53271C52.6583 8.53271 52.1474 8.90988 51.7781 9.66178C51.4057 10.4162 51.2191 11.4632 51.2191 12.8069C51.2191 15.6002 51.9498 16.9966 53.4089 16.9966C54.0493 16.9966 54.7182 16.794 55.4181 16.386V18.3878C54.8281 18.7791 54.0754 18.9733 53.155 18.9733C51.7924 18.9733 50.7454 18.4327 50.014 17.3518C49.2856 16.2708 48.9187 14.7535 48.9187 12.7935C48.9187 10.8367 49.2967 9.31071 50.0472 8.21551C50.8008 7.12032 51.8471 6.57431 53.185 6.57431C53.6278 6.57431 54.0486 6.63348 54.455 6.75422C54.8615 6.87573 55.2932 7.0864 55.759 7.39097L55.014 9.20967C54.7657 9.04087 54.5008 8.88299 54.2185 8.74492C53.9394 8.60369 53.6318 8.53349 53.3012 8.53349L53.3019 8.53271ZM60.0332 14.1072V18.8035H57.7842V6.74238H60.7267C61.9713 6.74238 62.891 7.03511 63.4833 7.62373C64.0757 8.21235 64.3722 9.11264 64.3722 10.3238C64.3722 11.8475 63.8558 12.9111 62.8254 13.5162L65.1479 18.8035H62.7438L60.8334 14.1072H60.0332ZM60.0332 12.1812H60.612C61.1395 12.1812 61.5207 12.032 61.7515 11.7306C61.9832 11.4316 62.0986 10.9843 62.0986 10.3909C62.0986 9.777 61.9777 9.3375 61.7317 9.07561C61.4866 8.81361 61.1077 8.68416 60.5946 8.68416H60.0332V12.1812ZM72.3574 18.8028H66.9058V6.74158H72.3574V8.68416H69.1548V11.5563H72.1257V13.4989H69.1548V16.8437H72.3574V18.8028ZM82.4581 12.657C82.4581 14.6477 82.0516 16.1706 81.2394 17.2231C80.4265 18.2765 79.2553 18.8028 77.7293 18.8028H74.7716V6.74158H78.0028C79.408 6.74158 80.5025 7.25999 81.2845 8.296C82.0659 9.33512 82.4581 10.7877 82.4581 12.657ZM80.153 12.7272C80.153 10.0327 79.408 8.68416 77.9205 8.68416H77.0206V16.8437H77.7458C78.5666 16.8437 79.1739 16.5005 79.5654 15.8162C79.9552 15.1323 80.1521 14.1018 80.1521 12.728L80.153 12.7272ZM85.2843 18.8028V6.74158H87.4002V18.8028H85.2843ZM94.321 18.8028H92.0811V8.71812H89.7676V6.74158H96.6353V8.71812H94.321V18.8028ZM53.3028 26.9362C52.6591 26.9362 52.1483 27.3134 51.779 28.0654C51.4066 28.8196 51.2199 29.8675 51.2199 31.2104C51.2199 34.0037 51.9506 35.4002 53.4096 35.4002C54.0501 35.4002 54.719 35.1974 55.4189 34.7886V36.7906C54.829 37.1819 54.0761 37.376 53.1557 37.376C51.7932 37.376 50.7462 36.8347 50.0147 35.7545C49.2864 34.6728 48.9195 33.1554 48.9195 31.1963C48.9195 29.2394 49.2975 27.7134 50.0479 26.6183C50.8016 25.523 51.8478 24.977 53.1858 24.977C53.6286 24.977 54.0493 25.0362 54.4557 25.1578C54.8622 25.2785 55.2939 25.49 55.7597 25.7938L55.0149 27.6124C54.7665 27.4436 54.5017 27.2857 54.2194 27.1477C53.9402 27.0072 53.6334 26.9362 53.3028 26.9362ZM62.5802 37.2071H57.1294V25.146H62.5802V27.0885H59.3775V29.9606H62.3485V31.9033H59.3775V35.248H62.5802V37.2071ZM72.8034 37.2071H70.0578L66.3214 28.4709H66.2147C66.353 29.1353 66.4203 29.8501 66.4203 30.6163V37.2071H64.3381V25.146H67.098L70.8028 33.7923H70.8929C70.7885 33.2154 70.7379 32.5281 70.7379 31.7288V25.146H72.8034V37.2071ZM78.6473 37.2071H76.4069V27.1225H74.0932V25.146H80.9611V27.1225H78.6473V37.2071ZM87.7047 37.2071H82.2532V25.146H87.7047V27.0885H84.5022V29.9606H87.4729V31.9033H84.5022V35.248H87.7047V37.2071ZM91.7117 32.5107V37.2071H89.4631V25.146H92.4051C93.6496 25.146 94.5699 25.4386 95.1616 26.0273C95.7545 26.6159 96.0512 27.517 96.0512 28.7273C96.0512 30.251 95.5347 31.3154 94.504 31.9198L96.8269 37.2071H94.4227L92.5121 32.5107H91.7117ZM91.7117 30.5856H92.2906C92.8182 30.5856 93.1988 30.4364 93.4298 30.135C93.6615 29.8367 93.7771 29.3894 93.7771 28.7951C93.7771 28.1813 93.6564 27.7418 93.4101 27.4799C93.1655 27.2179 92.7866 27.0885 92.2735 27.0885H91.7117V30.5856Z" fill="white"/>
<path d="M122.582 16.5544L122.428 20.9218H121.028V17.9336H119.996V16.5544H122.582ZM113.46 17.9336V5.53755H115.03V16.597H119.885V5.53755H121.455V17.9336H113.46ZM127.658 18.1038C127.107 18.1038 126.609 18.0216 126.165 17.8569C125.721 17.6924 125.343 17.4426 125.03 17.1077C124.717 16.7672 124.478 16.3386 124.313 15.8222C124.148 15.3058 124.066 14.6955 124.066 13.9917V12.953C124.066 12.1414 124.16 11.4546 124.348 10.8927C124.541 10.3308 124.8 9.87957 125.124 9.53899C125.448 9.19277 125.815 8.94308 126.225 8.7898C126.635 8.63091 127.055 8.55145 127.487 8.55145C128.068 8.55145 128.562 8.64507 128.972 8.83239C129.382 9.01971 129.714 9.29782 129.971 9.66674C130.227 10.0357 130.414 10.4897 130.534 11.0289C130.658 11.5682 130.721 12.1897 130.721 12.8935V13.7704H124.953V12.4848H129.212V12.2719C129.188 11.7952 129.123 11.3751 129.015 11.0119C128.912 10.6486 128.742 10.3649 128.503 10.1605C128.264 9.95048 127.925 9.84553 127.487 9.84553C127.208 9.84553 126.95 9.89373 126.712 9.99025C126.478 10.081 126.276 10.2429 126.105 10.4755C125.94 10.7026 125.809 11.0176 125.713 11.4205C125.622 11.8236 125.577 12.3344 125.577 12.953V13.9917C125.577 14.4855 125.622 14.9111 125.713 15.2687C125.809 15.6207 125.949 15.913 126.131 16.1456C126.319 16.3727 126.546 16.5431 126.813 16.6565C127.086 16.7643 127.397 16.8182 127.744 16.8182C128.25 16.8182 128.668 16.7218 128.998 16.5288C129.328 16.3301 129.615 16.0776 129.86 15.7711L130.653 16.7161C130.488 16.9488 130.272 17.173 130.004 17.3887C129.743 17.5987 129.418 17.7717 129.032 17.908C128.65 18.0386 128.193 18.1038 127.658 18.1038ZM137.803 12.7147V13.9917H133.887V12.7147H137.803ZM134.194 8.7217V17.9336H132.684V8.7217H134.194ZM139.032 8.7217V17.9336H137.522V8.7217H139.032ZM144.758 8.7217V17.9336H143.247V8.7217H144.758ZM147.275 8.7217V9.99879H140.764V8.7217H147.275ZM150.389 10.4925V21.4753H148.878V8.7217H150.252L150.389 10.4925ZM155.55 12.9104V13.7704C155.55 14.4969 155.483 15.1326 155.346 15.6774C155.215 16.2166 155.019 16.6678 154.757 17.0312C154.502 17.3887 154.186 17.6583 153.811 17.8399C153.436 18.0158 153.005 18.1038 152.521 18.1038C152.039 18.1038 151.618 18.013 151.259 17.8314C150.907 17.6441 150.608 17.3744 150.364 17.0226C150.124 16.6707 149.933 16.2478 149.792 15.7541C149.655 15.2545 149.561 14.6955 149.51 14.0768V12.7657C149.561 12.113 149.655 11.5284 149.792 11.0119C149.929 10.4897 150.116 10.047 150.355 9.68372C150.599 9.31481 150.898 9.03387 151.251 8.84092C151.609 8.64789 152.027 8.55145 152.505 8.55145C152.999 8.55145 153.436 8.63654 153.811 8.80687C154.192 8.97712 154.509 9.24107 154.766 9.59863C155.028 9.95048 155.224 10.4018 155.355 10.9523C155.486 11.4972 155.55 12.1499 155.55 12.9104ZM154.04 13.7704V12.9104C154.04 12.3996 154.002 11.954 153.921 11.5738C153.847 11.1935 153.728 10.8785 153.564 10.6288C153.399 10.379 153.19 10.1917 152.94 10.0669C152.69 9.94204 152.389 9.87957 152.036 9.87957C151.734 9.87957 151.467 9.94204 151.233 10.0669C151.006 10.1917 150.809 10.362 150.645 10.5777C150.48 10.7877 150.343 11.0289 150.236 11.3014C150.127 11.5682 150.048 11.8463 149.996 12.1357V14.7153C150.093 15.0787 150.221 15.4221 150.38 15.7455C150.539 16.0634 150.752 16.3216 151.02 16.5203C151.293 16.7189 151.637 16.8182 152.052 16.8182C152.399 16.8182 152.699 16.7559 152.949 16.6311C153.199 16.5061 153.403 16.3188 153.564 16.0691C153.728 15.8137 153.847 15.4958 153.921 15.1154C154.002 14.7296 154.04 14.2811 154.04 13.7704ZM170.5 13.4894V13.6682C170.5 14.3153 170.44 14.9111 170.321 15.456C170.202 15.9954 170.022 16.4635 169.783 16.8608C169.549 17.2581 169.258 17.5674 168.905 17.7889C168.558 18.0045 168.153 18.1124 167.693 18.1124C167.295 18.1124 166.945 18.0527 166.644 17.9336C166.342 17.8087 166.086 17.6298 165.876 17.3972C165.666 17.1645 165.501 16.8864 165.38 16.5629C165.261 16.2336 165.179 15.8648 165.133 15.456V11.3695C165.179 10.9325 165.261 10.5408 165.38 10.1945C165.501 9.84834 165.661 9.55324 165.867 9.30918C166.077 9.06511 166.33 8.87779 166.626 8.74723C166.927 8.61665 167.277 8.55145 167.676 8.55145C168.051 8.55145 168.389 8.63091 168.692 8.7898C168.993 8.94308 169.258 9.16443 169.485 9.4539C169.712 9.74337 169.899 10.0924 170.048 10.5011C170.196 10.9041 170.307 11.3581 170.38 11.8633C170.459 12.3685 170.5 12.9104 170.5 13.4894ZM168.999 13.6682V13.4894C168.999 13.0921 168.975 12.7147 168.93 12.3571C168.89 11.9938 168.824 11.6618 168.733 11.3609C168.649 11.0544 168.535 10.7877 168.392 10.5606C168.255 10.3337 168.089 10.1577 167.889 10.0328C167.696 9.90791 167.468 9.84553 167.207 9.84553C166.939 9.84553 166.711 9.8881 166.524 9.97319C166.342 10.0584 166.196 10.1719 166.089 10.3138C165.982 10.45 165.901 10.5947 165.851 10.748V16.086C165.913 16.211 165.998 16.3301 166.105 16.4437C166.214 16.5515 166.357 16.6424 166.533 16.7161C166.714 16.7841 166.945 16.8182 167.223 16.8182C167.542 16.8182 167.812 16.7387 168.035 16.5798C168.261 16.4153 168.446 16.1882 168.589 15.8989C168.73 15.6094 168.833 15.2745 168.896 14.8942C168.964 14.5138 168.999 14.1053 168.999 13.6682ZM161.233 13.6682V13.4894C161.233 12.9104 161.271 12.3685 161.344 11.8633C161.423 11.3581 161.538 10.9041 161.685 10.5011C161.84 10.0924 162.031 9.74337 162.257 9.4539C162.485 9.16443 162.747 8.94308 163.042 8.7898C163.344 8.63091 163.682 8.55145 164.058 8.55145C164.445 8.55145 164.783 8.61665 165.073 8.74723C165.364 8.87779 165.608 9.06511 165.807 9.30918C166.011 9.55324 166.174 9.84834 166.294 10.1945C166.413 10.5408 166.492 10.9325 166.533 11.3695V15.2943C166.488 15.7257 166.404 16.1145 166.285 16.4607C166.172 16.8069 166.011 17.1049 165.807 17.3546C165.608 17.5987 165.364 17.786 165.073 17.9165C164.783 18.0471 164.442 18.1124 164.05 18.1124C163.589 18.1124 163.182 18.0045 162.829 17.7889C162.482 17.5674 162.19 17.2581 161.951 16.8608C161.711 16.4635 161.532 15.9954 161.413 15.456C161.294 14.9111 161.233 14.3153 161.233 13.6682ZM162.744 13.4894V13.6682C162.744 14.1053 162.773 14.5138 162.829 14.8942C162.887 15.2745 162.979 15.6094 163.111 15.8989C163.242 16.1882 163.416 16.4153 163.632 16.5798C163.848 16.7387 164.114 16.8182 164.434 16.8182C164.717 16.8182 164.951 16.7757 165.133 16.6906C165.316 16.6055 165.457 16.4947 165.56 16.3586C165.667 16.2223 165.754 16.0804 165.816 15.9328V10.748C165.764 10.5947 165.685 10.45 165.577 10.3138C165.469 10.1719 165.32 10.0584 165.133 9.97319C164.951 9.8881 164.723 9.84553 164.451 9.84553C164.126 9.84553 163.854 9.94204 163.632 10.135C163.416 10.3279 163.242 10.5919 163.111 10.9267C162.979 11.2616 162.887 11.6504 162.829 12.0932C162.773 12.5302 162.744 12.9956 162.744 13.4894ZM165.048 21.4753V4.85645H166.55V21.4753H165.048ZM174.134 15.439L177.481 8.7217H178.99V17.9336H177.481V11.2162L174.134 17.9336H172.633V8.7217H174.134V15.439ZM186.661 12.7147V13.9917H182.745V12.7147H186.661ZM183.051 8.7217V17.9336H181.541V8.7217H183.051ZM187.889 8.7217V17.9336H186.379V8.7217H187.889ZM194.818 16.3586V11.3609C194.818 10.9977 194.762 10.7054 194.647 10.484C194.538 10.2627 194.375 10.1009 194.153 9.99879C193.937 9.89656 193.663 9.84553 193.334 9.84553C193.015 9.84553 192.738 9.91081 192.506 10.0413C192.278 10.1719 192.102 10.345 191.977 10.5606C191.856 10.7764 191.797 11.0147 191.797 11.2758H190.287C190.287 10.9466 190.358 10.6202 190.5 10.2967C190.649 9.97319 190.859 9.68091 191.131 9.41985C191.404 9.15309 191.731 8.94308 192.113 8.7898C192.5 8.63091 192.932 8.55145 193.41 8.55145C193.978 8.55145 194.483 8.64507 194.921 8.83239C195.359 9.01399 195.703 9.31199 195.953 9.72631C196.203 10.1406 196.328 10.6912 196.328 11.378V15.9243C196.328 16.2308 196.351 16.5572 196.397 16.9034C196.447 17.2496 196.519 17.5476 196.61 17.7973V17.9336H195.048C194.975 17.7519 194.917 17.5107 194.878 17.2099C194.838 16.9034 194.818 16.6196 194.818 16.3586ZM195.057 12.3486L195.073 13.4553H194.025C193.666 13.4553 193.34 13.4951 193.043 13.5745C192.753 13.654 192.503 13.7704 192.293 13.9236C192.081 14.0712 191.919 14.2556 191.806 14.477C191.697 14.6983 191.644 14.9509 191.644 15.2347C191.644 15.6036 191.696 15.8989 191.797 16.1201C191.9 16.3358 192.053 16.4918 192.259 16.5885C192.463 16.6848 192.722 16.7331 193.034 16.7331C193.416 16.7331 193.751 16.6452 194.041 16.4692C194.331 16.2932 194.556 16.0804 194.716 15.8307C194.881 15.5809 194.957 15.3482 194.946 15.1326L195.278 15.8392C195.256 16.0604 195.182 16.3018 195.057 16.5629C194.937 16.8182 194.769 17.0651 194.553 17.3036C194.337 17.5363 194.081 17.7291 193.785 17.8825C193.496 18.0301 193.168 18.1038 192.805 18.1038C192.269 18.1038 191.8 18.0017 191.396 17.7973C190.999 17.593 190.688 17.2922 190.466 16.8948C190.245 16.4976 190.134 16.0067 190.134 15.4221C190.134 14.9793 190.211 14.5706 190.363 14.196C190.518 13.8214 190.746 13.4979 191.046 13.2255C191.349 12.9474 191.725 12.7316 192.181 12.5784C192.643 12.4252 193.174 12.3486 193.777 12.3486H195.057ZM203.93 12.7147V13.9917H200.014V12.7147H203.93ZM200.322 8.7217V17.9336H198.811V8.7217H200.322ZM205.16 8.7217V17.9336H203.649V8.7217H205.16ZM210.765 16.8182C211.068 16.8182 211.34 16.7587 211.584 16.6394C211.834 16.5146 212.04 16.3216 212.198 16.0606C212.357 15.7937 212.449 15.4475 212.472 15.0219H213.888C213.866 15.6348 213.709 16.1741 213.419 16.6394C213.134 17.0992 212.759 17.4596 212.293 17.7208C211.832 17.9762 211.322 18.1038 210.765 18.1038C210.168 18.1038 209.647 18.0073 209.203 17.8143C208.765 17.6215 208.402 17.3433 208.112 16.98C207.827 16.6111 207.613 16.1656 207.471 15.6433C207.33 15.1154 207.258 14.5167 207.258 13.8469V12.8083C207.258 12.1385 207.33 11.5426 207.471 11.0204C207.613 10.4925 207.827 10.047 208.112 9.68372C208.402 9.31481 208.765 9.03387 209.203 8.84092C209.647 8.64789 210.168 8.55145 210.765 8.55145C211.391 8.55145 211.931 8.68483 212.387 8.95161C212.847 9.21265 213.204 9.59291 213.462 10.0924C213.723 10.5862 213.866 11.185 213.888 11.8888H212.472C212.449 11.4348 212.366 11.0573 212.225 10.7565C212.082 10.45 211.89 10.223 211.644 10.0754C211.4 9.92216 211.106 9.84553 210.765 9.84553C210.368 9.84553 210.037 9.91644 209.775 10.0584C209.52 10.1945 209.316 10.3932 209.17 10.6544C209.022 10.9154 208.917 11.2276 208.853 11.5908C208.797 11.954 208.768 12.3599 208.768 12.8083V13.8469C208.768 14.2954 208.797 14.704 208.853 15.073C208.917 15.4362 209.019 15.7483 209.162 16.0095C209.309 16.2706 209.514 16.472 209.775 16.6139C210.037 16.7502 210.368 16.8182 210.765 16.8182ZM215.322 13.7704V12.8935C215.322 12.1782 215.413 11.5511 215.595 11.0119C215.776 10.467 216.031 10.0129 216.354 9.64966C216.679 9.28647 217.057 9.01399 217.489 8.83239C217.921 8.64507 218.385 8.55145 218.879 8.55145C219.386 8.55145 219.855 8.64507 220.288 8.83239C220.72 9.01399 221.098 9.28647 221.423 9.64966C221.752 10.0129 222.008 10.467 222.19 11.0119C222.371 11.5511 222.464 12.1782 222.464 12.8935V13.7704C222.464 14.4855 222.371 15.1154 222.19 15.6603C222.008 16.1997 221.755 16.6507 221.43 17.0141C221.107 17.3774 220.727 17.6498 220.296 17.8314C219.864 18.013 219.398 18.1038 218.897 18.1038C218.396 18.1038 217.929 18.013 217.498 17.8314C217.064 17.6498 216.683 17.3774 216.354 17.0141C216.031 16.6507 215.776 16.1997 215.595 15.6603C215.413 15.1154 215.322 14.4855 215.322 13.7704ZM216.832 12.8935V13.7704C216.832 14.2755 216.883 14.7182 216.985 15.0985C217.088 15.4788 217.233 15.7967 217.42 16.0521C217.608 16.3075 217.827 16.5005 218.077 16.6311C218.329 16.7559 218.601 16.8182 218.897 16.8182C219.238 16.8182 219.536 16.7559 219.792 16.6311C220.054 16.5005 220.27 16.3075 220.44 16.0521C220.611 15.7967 220.739 15.4788 220.824 15.0985C220.911 14.7182 220.952 14.2755 220.952 13.7704V12.8935C220.952 12.3883 220.902 11.9484 220.799 11.5738C220.698 11.1935 220.552 10.8756 220.364 10.6202C220.177 10.3592 219.955 10.1662 219.699 10.0413C219.448 9.91081 219.176 9.84553 218.879 9.84553C218.591 9.84553 218.32 9.91081 218.069 10.0413C217.818 10.1662 217.599 10.3592 217.413 10.6202C217.23 10.8756 217.088 11.1935 216.985 11.5738C216.883 11.9484 216.832 12.3883 216.832 12.8935ZM228.128 13.8811H225.662L225.646 12.621H227.625C228.018 12.621 228.343 12.5727 228.597 12.4762C228.86 12.3798 229.056 12.2351 229.187 12.042C229.317 11.8491 229.384 11.6107 229.384 11.3269C229.384 11.1055 229.347 10.9126 229.272 10.748C229.199 10.5777 229.087 10.4386 228.94 10.3308C228.797 10.2173 228.618 10.135 228.402 10.0839C228.186 10.0271 227.933 9.99879 227.643 9.99879H226.047V17.9336H224.546V8.7217H227.643C228.143 8.7217 228.592 8.77274 228.991 8.87498C229.394 8.97712 229.735 9.13321 230.015 9.34322C230.3 9.54753 230.515 9.80866 230.663 10.1264C230.816 10.4443 230.894 10.8189 230.894 11.2503C230.894 11.5284 230.845 11.7923 230.748 12.042C230.651 12.2918 230.507 12.5132 230.313 12.7061C230.125 12.8991 229.892 13.0581 229.613 13.1829C229.335 13.3021 229.014 13.3787 228.65 13.4127L228.128 13.8811ZM228.128 17.9336H225.1L225.877 16.6565H228.128C228.475 16.6565 228.761 16.6026 228.982 16.4947C229.204 16.3812 229.369 16.2223 229.478 16.018C229.591 15.808 229.647 15.5582 229.647 15.2687C229.647 14.9793 229.591 14.7324 229.478 14.5281C229.369 14.3181 229.204 14.1592 228.982 14.0513C228.761 13.9378 228.475 13.8811 228.128 13.8811H226.106L226.124 12.621H228.624L229.153 13.0977C229.591 13.1375 229.959 13.2624 230.253 13.4724C230.556 13.6824 230.781 13.9492 230.928 14.2727C231.081 14.5905 231.157 14.9367 231.157 15.3113C231.157 15.7427 231.09 16.123 230.953 16.4522C230.816 16.7813 230.617 17.0567 230.356 17.2781C230.094 17.4937 229.775 17.6583 229.4 17.7717C229.025 17.8797 228.6 17.9336 228.128 17.9336ZM234.477 11.8888H236.73C237.367 11.8888 237.901 12.0193 238.333 12.2805C238.767 12.5359 239.093 12.8906 239.316 13.3446C239.537 13.7931 239.648 14.3039 239.648 14.8771C239.648 15.3028 239.584 15.7029 239.461 16.0776C239.336 16.4466 239.146 16.77 238.898 17.0482C238.652 17.3262 238.348 17.5448 237.983 17.7037C237.626 17.8569 237.208 17.9336 236.73 17.9336H233.351V8.7217H234.853V16.6394H236.73C237.082 16.6394 237.361 16.5572 237.565 16.3925C237.77 16.228 237.915 16.0152 238.001 15.7541C238.092 15.4929 238.138 15.2206 238.138 14.9367C238.138 14.6586 238.092 14.3862 238.001 14.1194C237.915 13.8527 237.77 13.6313 237.565 13.4553C237.361 13.2737 237.082 13.1829 236.73 13.1829H234.477V11.8888ZM242.464 8.7217V17.9336H240.953V8.7217H242.464ZM246.218 8.7217L247.77 12.0761L249.35 8.7217H251.098L248.598 13.268L251.167 17.9336H249.435L247.804 14.477L246.168 17.9336H244.425L246.994 13.268L244.494 8.7217H246.218Z" fill="white"/>
<path d="M114.825 27.5552V36.7671H113.315V27.5552H114.825ZM119.902 27.5552L116.19 32.8337H114.322L114.083 31.4545H115.576L118.093 27.5552H119.902ZM118.23 36.7671L115.525 32.5953L116.489 31.4545L120.124 36.7671H118.23ZM121.071 32.6038V31.727C121.071 31.0118 121.162 30.3846 121.344 29.8454C121.526 29.3005 121.779 28.8465 122.103 28.4833C122.428 28.1199 122.806 27.8474 123.238 27.6659C123.671 27.4785 124.135 27.3849 124.629 27.3849C125.135 27.3849 125.605 27.4785 126.037 27.6659C126.469 27.8474 126.848 28.1199 127.172 28.4833C127.502 28.8465 127.758 29.3005 127.94 29.8454C128.122 30.3846 128.212 31.0118 128.212 31.727V32.6038C128.212 33.319 128.122 33.9491 127.94 34.4939C127.758 35.0331 127.504 35.4843 127.18 35.8475C126.856 36.2109 126.478 36.4834 126.045 36.6649C125.613 36.8466 125.146 36.9373 124.646 36.9373C124.146 36.9373 123.68 36.8466 123.247 36.6649C122.815 36.4834 122.433 36.2109 122.103 35.8475C121.779 35.4843 121.526 35.0331 121.344 34.4939C121.162 33.9491 121.071 33.319 121.071 32.6038ZM122.582 31.727V32.6038C122.582 33.1091 122.633 33.5518 122.735 33.9319C122.837 34.3123 122.983 34.6302 123.17 34.8856C123.358 35.141 123.577 35.3339 123.827 35.4645C124.077 35.5893 124.35 35.6517 124.646 35.6517C124.987 35.6517 125.286 35.5893 125.542 35.4645C125.804 35.3339 126.02 35.141 126.191 34.8856C126.361 34.6302 126.489 34.3123 126.575 33.9319C126.66 33.5518 126.703 33.1091 126.703 32.6038V31.727C126.703 31.2217 126.652 30.7819 126.549 30.4073C126.446 30.027 126.302 29.7092 126.114 29.4537C125.926 29.1927 125.704 28.9997 125.448 28.8749C125.198 28.7443 124.925 28.6791 124.629 28.6791C124.339 28.6791 124.069 28.7443 123.818 28.8749C123.568 28.9997 123.349 29.1927 123.161 29.4537C122.979 29.7092 122.837 30.027 122.735 30.4073C122.633 30.7819 122.582 31.2217 122.582 31.727ZM135.415 31.5482V32.8252H131.498V31.5482H135.415ZM131.805 27.5552V36.7671H130.295V27.5552H131.805ZM136.643 27.5552V36.7671H135.132V27.5552H136.643ZM142.249 35.6517C142.55 35.6517 142.823 35.5922 143.068 35.473C143.318 35.3481 143.523 35.1551 143.682 34.8941C143.842 34.6274 143.932 34.2811 143.955 33.8554H145.372C145.349 34.4683 145.193 35.0075 144.902 35.473C144.618 35.9327 144.243 36.2931 143.777 36.5543C143.316 36.8097 142.807 36.9373 142.249 36.9373C141.651 36.9373 141.131 36.8409 140.687 36.6478C140.249 36.455 139.885 36.1768 139.595 35.8134C139.31 35.4446 139.097 34.999 138.955 34.4768C138.813 33.9491 138.742 33.3503 138.742 32.6805V31.6418C138.742 30.972 138.813 30.3761 138.955 29.854C139.097 29.3261 139.31 28.8806 139.595 28.5174C139.885 28.1484 140.249 27.8674 140.687 27.6744C141.131 27.4815 141.651 27.3849 142.249 27.3849C142.874 27.3849 143.415 27.5183 143.87 27.7852C144.331 28.0462 144.689 28.4265 144.945 28.9258C145.207 29.4198 145.349 30.0185 145.372 30.7223H143.955C143.932 30.2683 143.85 29.8908 143.708 29.59C143.565 29.2835 143.372 29.0564 143.127 28.9088C142.883 28.7556 142.59 28.6791 142.249 28.6791C141.851 28.6791 141.52 28.75 141.259 28.8919C141.003 29.0281 140.801 29.2268 140.653 29.4878C140.505 29.7489 140.4 30.061 140.338 30.4243C140.28 30.7877 140.252 31.1934 140.252 31.6418V32.6805C140.252 33.1289 140.28 33.5375 140.338 33.9065C140.4 34.2697 140.503 34.5819 140.645 34.843C140.793 35.104 140.998 35.3056 141.259 35.4474C141.52 35.5837 141.851 35.6517 142.249 35.6517ZM149.262 35.8134L151.32 27.5552H152.923L149.877 38.1889C149.802 38.4158 149.704 38.6599 149.579 38.9211C149.458 39.1878 149.305 39.4403 149.117 39.6787C148.93 39.9172 148.705 40.1101 148.444 40.2577C148.182 40.4109 147.875 40.4875 147.522 40.4875C147.414 40.4875 147.275 40.4705 147.104 40.4366C146.938 40.4025 146.82 40.374 146.745 40.3514V39.0743C146.779 39.08 146.833 39.0856 146.908 39.0913C146.981 39.1028 147.036 39.1083 147.069 39.1083C147.365 39.1083 147.616 39.0602 147.82 38.9635C148.031 38.8728 148.21 38.7168 148.358 38.4953C148.506 38.2797 148.631 37.9817 148.734 37.6014L149.262 35.8134ZM147.932 27.5552L149.767 34.7067L150.158 36.3669L149.083 36.9459L146.285 27.5552H147.932ZM159.203 27.5552V28.8578H155.525V27.5552H159.203ZM160.551 27.5552V36.7671H159.05V27.5552H160.551ZM155.168 27.5552H156.678L156.465 31.9994C156.43 32.6861 156.372 33.2934 156.293 33.8213C156.22 34.3435 156.115 34.7919 155.978 35.1664C155.847 35.5411 155.681 35.8475 155.483 36.0859C155.29 36.3187 155.056 36.4917 154.783 36.6054C154.517 36.7132 154.206 36.7671 153.853 36.7671H153.401V35.3794L153.699 35.3537C153.899 35.3368 154.07 35.28 154.212 35.1835C154.359 35.087 154.478 34.9451 154.57 34.7578C154.667 34.5648 154.743 34.3179 154.8 34.0171C154.862 33.7163 154.911 33.3588 154.946 32.9445C154.98 32.5301 155.005 32.0476 155.023 31.4971L155.168 27.5552ZM164.236 30.7223H166.489C167.127 30.7223 167.661 30.8529 168.095 31.1139C168.526 31.3693 168.853 31.7242 169.076 32.1782C169.296 32.6266 169.408 33.1373 169.408 33.7107C169.408 34.1364 169.345 34.5365 169.22 34.911C169.095 35.28 168.908 35.6035 168.657 35.8816C168.412 36.1597 168.108 36.3783 167.745 36.5371C167.386 36.6904 166.967 36.7671 166.489 36.7671H163.111V27.5552H164.613V35.473H166.489C166.842 35.473 167.121 35.3907 167.326 35.2261C167.53 35.0616 167.676 34.8486 167.761 34.5876C167.852 34.3266 167.898 34.054 167.898 33.7702C167.898 33.4922 167.852 33.2197 167.761 32.9528C167.676 32.6861 167.53 32.4647 167.326 32.2888C167.121 32.1072 166.842 32.0163 166.489 32.0163H164.236V30.7223ZM174.059 27.5552V36.7671H172.547V27.5552H174.059ZM176.575 27.5552V28.8323H170.065V27.5552H176.575ZM182.566 35.192V30.1944C182.566 29.8312 182.508 29.5389 182.395 29.3176C182.286 29.0962 182.122 28.9345 181.9 28.8323C181.683 28.7301 181.41 28.6791 181.081 28.6791C180.761 28.6791 180.486 28.7443 180.253 28.8749C180.025 29.0055 179.85 29.1785 179.725 29.3941C179.604 29.6099 179.544 29.8482 179.544 30.1094H178.034C178.034 29.7801 178.104 29.4537 178.247 29.1303C178.396 28.8067 178.606 28.5144 178.879 28.2533C179.151 27.9866 179.479 27.7765 179.86 27.6233C180.247 27.4644 180.679 27.3849 181.157 27.3849C181.726 27.3849 182.229 27.4785 182.667 27.6659C183.106 27.8474 183.45 28.1455 183.701 28.5598C183.949 28.9742 184.076 29.5247 184.076 30.2115V34.7578C184.076 35.0643 184.098 35.3907 184.143 35.7369C184.195 36.0831 184.265 36.3811 184.357 36.6308V36.7671H182.795C182.722 36.5855 182.664 36.3442 182.625 36.0434C182.585 35.7369 182.566 35.4531 182.566 35.192ZM182.804 31.182L182.82 32.2888H181.772C181.413 32.2888 181.086 32.3286 180.791 32.408C180.5 32.4875 180.25 32.6038 180.04 32.7572C179.829 32.9047 179.667 33.0892 179.553 33.3105C179.445 33.5318 179.391 33.7844 179.391 34.0682C179.391 34.4372 179.442 34.7323 179.544 34.9536C179.647 35.1692 179.801 35.3255 180.006 35.4219C180.21 35.5184 180.469 35.5667 180.782 35.5667C181.163 35.5667 181.498 35.4787 181.789 35.3027C182.079 35.1268 182.304 34.914 182.463 34.6641C182.628 34.4144 182.704 34.1818 182.692 33.966L183.026 34.6728C183.004 34.8941 182.929 35.1353 182.804 35.3963C182.683 35.6517 182.517 35.8986 182.301 36.137C182.085 36.3698 181.829 36.5628 181.532 36.716C181.242 36.8636 180.916 36.9373 180.551 36.9373C180.016 36.9373 179.547 36.8351 179.144 36.6308C178.746 36.4265 178.435 36.1257 178.213 35.7284C177.991 35.3311 177.881 34.8402 177.881 34.2555C177.881 33.8128 177.957 33.4042 178.11 33.0295C178.265 32.655 178.493 32.3314 178.794 32.0589C179.096 31.7809 179.473 31.5653 179.929 31.4119C180.39 31.2587 180.922 31.182 181.525 31.182H182.804ZM186.558 36.7671V27.5552H188.07V35.473H191.404V27.5552H192.915V36.7671H186.558ZM193.888 35.473L193.734 39.5H192.396V36.7671H191.346V35.473H193.888ZM197.223 34.2725L200.569 27.5552H202.079V36.7671H200.569V30.0497L197.223 36.7671H195.722V27.5552H197.223V34.2725ZM206.133 34.2725L209.477 27.5552H210.987V36.7671H209.477V30.0497L206.133 36.7671H204.63V27.5552H206.133V34.2725ZM209.077 24.2178H210.356C210.356 24.6605 210.253 25.055 210.049 25.4012C209.844 25.7418 209.55 26.0085 209.17 26.2016C208.789 26.3945 208.337 26.491 207.812 26.491C207.023 26.491 206.396 26.281 205.936 25.8609C205.48 25.4353 205.253 24.8875 205.253 24.2178H206.533C206.533 24.5527 206.63 24.8479 206.824 25.1033C207.017 25.3586 207.346 25.4864 207.812 25.4864C208.268 25.4864 208.591 25.3586 208.786 25.1033C208.98 24.8479 209.077 24.5527 209.077 24.2178Z" fill="white"/>
<path d="M15.2259 22.6097L16.3295 22.8877C16.0983 23.7922 15.681 24.4827 15.0781 24.9596C14.4789 25.4325 13.7452 25.669 12.8768 25.669C11.978 25.669 11.246 25.4874 10.681 25.1241C10.1197 24.757 9.69124 24.2274 9.3955 23.5349C9.10342 22.8425 8.95743 22.099 8.95743 21.3042C8.95743 20.4377 9.12241 19.6829 9.45237 19.0397C9.7861 18.3925 10.2582 17.9025 10.8688 17.5697C11.4831 17.2328 12.1581 17.0644 12.8938 17.0644C13.7281 17.0644 14.4297 17.2763 14.9985 17.7001C15.5674 18.1239 15.9636 18.7199 16.1875 19.4881L15.1008 19.7435C14.9076 19.138 14.6269 18.6972 14.259 18.421C13.8912 18.1448 13.4285 18.0067 12.871 18.0067C12.2302 18.0067 11.6936 18.1599 11.2612 18.4664C10.8327 18.7729 10.5312 19.1853 10.3568 19.7037C10.1823 20.2184 10.0951 20.75 10.0951 21.2987C10.0951 22.0062 10.1975 22.6249 10.4023 23.1546C10.6109 23.6806 10.9332 24.0741 11.3694 24.3352C11.8055 24.5962 12.2776 24.7268 12.7858 24.7268C13.4039 24.7268 13.9272 24.549 14.3557 24.1933C14.7842 23.8377 15.0743 23.3098 15.2259 22.6097ZM17.7516 25.5272V17.2063H23.3774V18.1882H18.8552V20.7652H22.7688V21.7471H18.8552V25.5272H17.7516ZM30.7667 22.6097L31.8703 22.8877C31.6388 23.7922 31.2217 24.4827 30.6188 24.9596C30.0196 25.4325 29.2857 25.669 28.4173 25.669C27.5186 25.669 26.7867 25.4874 26.2216 25.1241C25.6603 24.757 25.2319 24.2274 24.936 23.5349C24.644 22.8425 24.4981 22.099 24.4981 21.3042C24.4981 20.4377 24.6631 19.6829 24.9929 19.0397C25.3266 18.3925 25.7988 17.9025 26.4094 17.5697C27.0236 17.2328 27.6988 17.0644 28.4344 17.0644C29.2688 17.0644 29.9703 17.2763 30.539 17.7001C31.1078 18.1239 31.5042 18.7199 31.7279 19.4881L30.6416 19.7435C30.448 19.138 30.1674 18.6972 29.7996 18.421C29.4317 18.1448 28.9692 18.0067 28.4116 18.0067C27.7707 18.0067 27.2342 18.1599 26.8017 18.4664C26.3733 18.7729 26.0718 19.1853 25.8974 19.7037C25.723 20.2184 25.6358 20.75 25.6358 21.2987C25.6358 22.0062 25.7381 22.6249 25.9428 23.1546C26.1514 23.6806 26.4738 24.0741 26.9099 24.3352C27.346 24.5962 27.8181 24.7268 28.3263 24.7268C28.9444 24.7268 29.4677 24.549 29.8963 24.1933C30.3248 23.8377 30.6149 23.3098 30.7667 22.6097Z" fill="white"/>
</svg>
