<svg width="48" height="48" viewBox="0 0 48 48" fill="none" xmlns="http://www.w3.org/2000/svg">
<g clip-path="url(#clip0_1_2)">
<mask id="mask0_1_2" style="mask-type:luminance" maskUnits="userSpaceOnUse" x="0" y="0" width="48" height="48">
<path d="M48 0H0V48H48V0Z" fill="white"/>
</mask>
<g mask="url(#mask0_1_2)">
<path fill-rule="evenodd" clip-rule="evenodd" d="M23.179 47.5398C36.8872 47.5398 48.0003 36.8977 48.0003 23.7703C48.0003 10.643 36.8872 0.000904467 23.179 0.000904467C14.5569 0.000904467 6.96252 4.21113 2.51339 10.602C6.24685 6.68194 11.6238 4.22223 17.6006 4.22223C28.875 4.22223 38.0148 12.9747 38.0148 23.7711C38.0148 34.5677 28.875 43.3202 17.6006 43.3202C11.6238 43.3202 6.24774 40.8604 2.51339 36.9405C6.96252 43.3305 14.5569 47.5416 23.179 47.5416V47.5398Z" fill="#8EA5BF"/>
<path fill-rule="evenodd" clip-rule="evenodd" d="M17.0185 40.0658C7.62027 40.0658 0.000942416 32.7695 0.000942416 23.7695C0.000942416 14.7695 7.62027 7.47308 17.0185 7.47308C22.9302 7.47308 28.1369 10.3595 31.1867 14.7404C28.6271 12.0529 24.9409 10.3663 20.8429 10.3663C13.114 10.3663 6.84755 16.3664 6.84755 23.7685C6.84755 31.1708 13.114 37.1707 20.8429 37.1707C24.9409 37.1707 28.6271 35.4842 31.1867 32.7967C28.1361 37.1776 22.9292 40.0641 17.0185 40.0641V40.0658Z" fill="#8EA5BF"/>
<path d="M17.1605 24.4563L18.4043 24.757C18.1437 25.7354 17.6734 26.4823 16.9938 26.9981C16.3186 27.5096 15.4916 27.7654 14.5128 27.7654C13.4998 27.7654 12.6749 27.5691 12.0381 27.1761C11.4055 26.779 10.9226 26.2061 10.5893 25.4571C10.2601 24.7081 10.0955 23.9038 10.0955 23.0442C10.0955 22.1069 10.2815 21.2904 10.6534 20.5947C11.0295 19.8947 11.5616 19.3646 12.2497 19.0046C12.9421 18.6403 13.7029 18.4581 14.532 18.4581C15.4723 18.4581 16.2631 18.6873 16.9042 19.1457C17.5453 19.6041 17.9919 20.2488 18.2442 21.0797L17.0195 21.356C16.8017 20.701 16.4853 20.2243 16.0708 19.9255C15.6562 19.6267 15.1347 19.4774 14.5064 19.4774C13.7841 19.4774 13.1793 19.6431 12.6921 19.9746C12.2091 20.3061 11.8693 20.7523 11.6727 21.313C11.4761 21.8696 11.3778 22.4447 11.3778 23.0382C11.3778 23.8035 11.4931 24.4728 11.724 25.0457C11.9591 25.6146 12.3223 26.0403 12.8139 26.3227C13.3054 26.605 13.8375 26.7463 14.4103 26.7463C15.1069 26.7463 15.6968 26.554 16.1797 26.1692C16.6627 25.7845 16.9897 25.2135 17.1605 24.4563ZM20.0071 27.6121V18.6116H26.3476V19.6737H21.2509V22.4611H25.6617V23.5232H21.2509V27.6121H20.0071ZM34.6758 24.4563L35.9196 24.757C35.6588 25.7354 35.1887 26.4823 34.5091 26.9981C33.8338 27.5096 33.0067 27.7654 32.0279 27.7654C31.015 27.7654 30.1902 27.5691 29.5532 27.1761C28.9207 26.779 28.4378 26.2061 28.1043 25.4571C27.7752 24.7081 27.6107 23.9038 27.6107 23.0442C27.6107 22.1069 27.7967 21.2904 28.1684 20.5947C28.5446 19.8947 29.0768 19.3646 29.7649 19.0046C30.4572 18.6403 31.2181 18.4581 32.0472 18.4581C32.9876 18.4581 33.7782 18.6873 34.4192 19.1457C35.0603 19.6041 35.5071 20.2488 35.7592 21.0797L34.5348 21.356C34.3166 20.701 34.0004 20.2243 33.5859 19.9255C33.1712 19.6267 32.6499 19.4774 32.0215 19.4774C31.2992 19.4774 30.6945 19.6431 30.2071 19.9746C29.7242 20.3061 29.3844 20.7523 29.1879 21.313C28.9913 21.8696 28.893 22.4447 28.893 23.0382C28.893 23.8035 29.0083 24.4728 29.239 25.0457C29.4742 25.6146 29.8375 26.0403 30.329 26.3227C30.8205 26.605 31.3526 26.7463 31.9254 26.7463C32.622 26.7463 33.2118 26.554 33.6948 26.1692C34.1778 25.7845 34.5048 25.2135 34.6758 24.4563Z" fill="#8EA5BF"/>
</g>
</g>
<defs>
<clipPath id="clip0_1_2">
<rect width="48" height="48" fill="white"/>
</clipPath>
</defs>
</svg>
