<svg width="175" height="30" viewBox="0 0 1746 298" fill="none" xmlns="http://www.w3.org/2000/svg">
<path fill-rule="evenodd" clip-rule="evenodd" d="M138.108 295.143C219.786 295.143 286.002 229.073 286.002 147.574C286.002 66.0752 219.786 0.00561523 138.108 0.00561523C86.7349 0.00561523 41.485 26.1441 14.9756 65.8208C37.2208 41.4837 69.2583 26.213 104.87 26.213C172.047 26.213 226.505 80.5511 226.505 147.579C226.505 214.608 172.047 268.946 104.87 268.946C69.2583 268.946 37.2261 253.675 14.9756 229.339C41.485 269.01 86.7349 295.154 138.108 295.154V295.143Z" fill="#8EA5BF"/>
<path fill-rule="evenodd" clip-rule="evenodd" d="M101.402 248.742C45.4041 248.742 0.00561523 203.444 0.00561523 147.569C0.00561523 91.6941 45.4041 46.3954 101.402 46.3954C136.626 46.3954 167.649 64.3153 185.821 91.5136C170.57 74.8284 148.606 64.3577 124.189 64.3577C78.1375 64.3577 40.8 101.608 40.8 147.563C40.8 193.519 78.1375 230.768 124.189 230.768C148.606 230.768 170.57 220.298 185.821 203.613C167.644 230.811 136.62 248.731 101.402 248.731V248.742Z" fill="#8EA5BF"/>
<path d="M700.795 45.1557V249.866H692.737V45.1557H700.795Z" fill="#8EA5BF"/>
<path d="M357.943 57.3004C353.621 57.3004 350.19 59.8332 347.71 64.8826C345.209 69.9486 343.956 76.9797 343.956 86.0034C343.956 104.761 348.863 114.139 358.661 114.139C362.962 114.139 367.454 112.778 372.154 110.038V123.481C368.192 126.109 363.137 127.413 356.956 127.413C347.806 127.413 340.775 123.783 335.863 116.524C330.972 109.265 328.508 99.0753 328.508 85.9134C328.508 72.7728 331.046 62.525 336.086 55.1703C341.147 47.8157 348.173 44.149 357.158 44.149C360.132 44.149 362.957 44.5464 365.686 45.3572C368.416 46.1732 371.315 47.5879 374.443 49.6332L369.44 61.8465C367.773 60.7129 365.994 59.6527 364.099 58.7255C362.224 57.7771 360.158 57.3057 357.938 57.3057L357.943 57.3004ZM403.146 94.7354V126.274H388.043V45.2777H407.803C416.162 45.2777 422.337 47.2435 426.315 51.1963C430.293 55.1491 432.284 61.1949 432.284 69.3286C432.284 79.5603 428.816 86.7031 421.897 90.7668L437.493 126.274H421.35L408.52 94.7354H403.146ZM403.146 81.8016H407.033C410.575 81.8016 413.135 80.7998 414.685 78.7757C416.241 76.7677 417.016 73.7636 417.016 69.779C417.016 65.6563 416.204 62.7049 414.552 60.9462C412.906 59.1868 410.362 58.3175 406.916 58.3175H403.146V81.8016ZM485.908 126.268H449.298V45.2723H485.908V58.3175H464.401V77.6049H484.352V90.6505H464.401V113.112H485.908V126.268ZM553.738 84.9965C553.738 98.3652 551.008 108.592 545.554 115.66C540.095 122.734 532.23 126.268 521.982 126.268H502.12V45.2723H523.819C533.256 45.2723 540.605 48.7536 545.857 55.7108C551.104 62.6889 553.738 72.4438 553.738 84.9965ZM538.258 85.4681C538.258 67.3732 533.256 58.3175 523.267 58.3175H517.223V113.112H522.093C527.605 113.112 531.684 110.807 534.312 106.212C536.93 101.619 538.252 94.6987 538.252 85.4733L538.258 85.4681ZM572.717 126.268V45.2723H586.926V126.268H572.717ZM633.402 126.268H618.36V58.5455H602.824V45.2723H648.943V58.5455H633.402V126.268ZM357.949 180.887C353.626 180.887 350.196 183.42 347.716 188.47C345.215 193.535 343.962 200.572 343.962 209.59C343.962 228.348 348.868 237.726 358.666 237.726C362.967 237.726 367.46 236.364 372.159 233.619V247.063C368.198 249.691 363.142 250.994 356.961 250.994C347.811 250.994 340.78 247.359 335.869 240.105C330.977 232.841 328.513 222.651 328.513 209.495C328.513 196.354 331.052 186.106 336.091 178.752C341.152 171.397 348.178 167.73 357.163 167.73C360.137 167.73 362.962 168.128 365.691 168.944C368.421 169.755 371.32 171.175 374.448 173.215L369.446 185.428C367.778 184.294 366 183.234 364.104 182.307C362.229 181.364 360.169 180.887 357.949 180.887ZM420.25 249.86H383.646V168.865H420.25V181.91H398.743V201.197H418.694V214.243H398.743V236.704H420.25V249.86ZM488.903 249.86H470.466L445.374 191.193H444.657C445.586 195.655 446.038 200.455 446.038 205.6V249.86H432.055V168.865H450.589L475.468 226.928H476.073C475.372 223.054 475.032 218.439 475.032 213.071V168.865H488.903V249.86ZM528.147 249.86H513.102V182.138H497.564V168.865H543.685V182.138H528.147V249.86ZM588.971 249.86H552.362V168.865H588.971V181.91H567.465V201.197H587.414V214.243H567.465V236.704H588.971V249.86ZM615.879 218.322V249.86H600.779V168.865H620.537C628.893 168.865 635.073 170.83 639.048 174.783C643.028 178.736 645.021 184.787 645.021 192.915C645.021 203.147 641.552 210.295 634.631 214.354L650.23 249.86H634.085L621.254 218.322H615.879ZM615.879 205.394H619.767C623.311 205.394 625.866 204.392 627.417 202.368C628.974 200.365 629.749 197.361 629.749 193.371C629.749 189.248 628.939 186.297 627.285 184.538C625.642 182.779 623.098 181.91 619.652 181.91H615.879V205.394Z" fill="#0D233A"/>
<path d="M823.182 111.169L822.148 140.498H812.752V120.431H805.819V111.169H823.182ZM761.928 120.431V37.1868H772.473V111.455H805.073V37.1868H815.618V120.431H761.928ZM857.275 121.574C853.57 121.574 850.227 121.022 847.247 119.916C844.266 118.811 841.727 117.134 839.625 114.885C837.523 112.598 835.92 109.72 834.812 106.252C833.704 102.784 833.152 98.6861 833.152 93.9594V86.9844C833.152 81.5339 833.784 76.9218 835.042 73.1487C836.34 69.3749 838.08 66.3451 840.257 64.0579C842.434 61.733 844.897 60.0561 847.649 59.0269C850.4 57.9598 853.225 57.4263 856.126 57.4263C860.026 57.4263 863.345 58.055 866.096 59.3129C868.848 60.5708 871.082 62.4384 872.805 64.9158C874.522 67.3932 875.78 70.4426 876.584 74.0633C877.422 77.6846 877.842 81.8583 877.842 86.5844V92.4734H839.108V83.84H867.705V82.4107C867.55 79.2089 867.113 76.3883 866.384 73.9492C865.694 71.5096 864.551 69.6042 862.949 68.2317C861.341 66.8213 859.066 66.1164 856.126 66.1164C854.253 66.1164 852.519 66.4402 850.917 67.0884C849.349 67.6981 847.993 68.7847 846.844 70.3469C845.736 71.8718 844.857 73.9871 844.208 76.6931C843.599 79.3998 843.295 82.8302 843.295 86.9844V93.9594C843.295 97.2758 843.599 100.134 844.208 102.535C844.857 104.899 845.793 106.862 847.017 108.424C848.28 109.949 849.808 111.093 851.6 111.855C853.432 112.579 855.517 112.941 857.849 112.941C861.249 112.941 864.052 112.293 866.269 110.997C868.486 109.663 870.415 107.967 872.058 105.909L877.388 112.255C876.28 113.818 874.826 115.323 873.029 116.772C871.271 118.182 869.094 119.344 866.498 120.259C863.937 121.136 860.864 121.574 857.275 121.574ZM925.403 85.3838V93.9594H899.104V85.3838H925.403ZM901.166 58.5696V120.431H891.023V58.5696H901.166ZM933.656 58.5696V120.431H923.513V58.5696H933.656ZM972.103 58.5696V120.431H961.96V58.5696H972.103ZM989.006 58.5696V67.1457H945.287V58.5696H989.006ZM1009.92 70.4615V144.215H999.775V58.5696H1009L1009.92 70.4615ZM1044.58 86.6985V92.4734C1044.58 97.352 1044.13 101.621 1043.21 105.28C1042.33 108.901 1041.01 111.931 1039.25 114.371C1037.54 116.772 1035.42 118.582 1032.9 119.802C1030.38 120.983 1027.49 121.574 1024.24 121.574C1021 121.574 1018.17 120.964 1015.76 119.745C1013.4 118.487 1011.39 116.676 1009.75 114.313C1008.14 111.95 1006.86 109.11 1005.91 105.795C1004.99 102.44 1004.36 98.6861 1004.02 94.5313V85.7265C1004.36 81.3436 1004.99 77.4175 1005.91 73.9492C1006.83 70.4426 1008.09 67.4695 1009.69 65.0299C1011.33 62.5525 1013.34 60.6659 1015.71 59.3702C1018.11 58.0739 1020.92 57.4263 1024.13 57.4263C1027.45 57.4263 1030.38 57.9976 1032.9 59.1415C1035.46 60.2848 1037.6 62.0573 1039.31 64.4585C1041.07 66.8213 1042.39 69.8517 1043.27 73.5487C1044.15 77.2078 1044.58 81.5912 1044.58 86.6985ZM1034.44 92.4734V86.6985C1034.44 83.268 1034.18 80.276 1033.64 77.7224C1033.14 75.1687 1032.34 73.0535 1031.24 71.3761C1030.13 69.6993 1028.73 68.4414 1027.05 67.603C1025.37 66.7646 1023.35 66.3451 1020.98 66.3451C1018.95 66.3451 1017.16 66.7646 1015.59 67.603C1014.06 68.4414 1012.74 69.5847 1011.64 71.0334C1010.53 72.4438 1009.61 74.0633 1008.89 75.8931C1008.16 77.6846 1007.63 79.5522 1007.28 81.4961V98.8191C1007.93 101.259 1008.79 103.565 1009.86 105.737C1010.93 107.872 1012.36 109.606 1014.16 110.94C1015.99 112.274 1018.3 112.941 1021.09 112.941C1023.42 112.941 1025.43 112.522 1027.11 111.683C1028.79 110.844 1030.16 109.587 1031.24 107.91C1032.34 106.195 1033.14 104.06 1033.64 101.506C1034.18 98.9148 1034.44 95.9032 1034.44 92.4734ZM1144.97 90.5862V91.7868C1144.97 96.1325 1144.57 100.134 1143.77 103.793C1142.97 107.415 1141.76 110.559 1140.16 113.227C1138.59 115.895 1136.63 117.972 1134.26 119.459C1131.93 120.907 1129.21 121.632 1126.12 121.632C1123.45 121.632 1121.1 121.231 1119.08 120.431C1117.05 119.592 1115.33 118.391 1113.92 116.829C1112.51 115.266 1111.4 113.399 1110.59 111.226C1109.79 109.015 1109.24 106.538 1108.93 103.793V76.3504C1109.24 73.4157 1109.79 70.7853 1110.59 68.4603C1111.4 66.1353 1112.48 64.1536 1113.86 62.5146C1115.27 60.8756 1116.97 59.6177 1118.96 58.7409C1120.98 57.8641 1123.33 57.4263 1126.01 57.4263C1128.53 57.4263 1130.8 57.9598 1132.83 59.0269C1134.85 60.0561 1136.63 61.5427 1138.16 63.4866C1139.68 65.4305 1140.94 67.7743 1141.94 70.5188C1142.93 73.2249 1143.68 76.2742 1144.17 79.6662C1144.7 83.0589 1144.97 86.6985 1144.97 90.5862ZM1134.89 91.7868V90.5862C1134.89 87.9186 1134.73 85.3838 1134.43 82.9826C1134.16 80.5431 1133.72 78.3132 1133.11 76.2931C1132.54 74.2346 1131.78 72.4438 1130.82 70.9188C1129.9 69.3944 1128.78 68.2127 1127.44 67.3743C1126.14 66.5353 1124.61 66.1164 1122.86 66.1164C1121.06 66.1164 1119.53 66.4024 1118.27 66.9737C1117.05 67.5457 1116.07 68.3079 1115.35 69.2609C1114.63 70.1755 1114.09 71.1475 1113.75 72.1767V108.024C1114.17 108.863 1114.74 109.663 1115.46 110.426C1116.19 111.15 1117.15 111.76 1118.33 112.255C1119.55 112.712 1121.1 112.941 1122.97 112.941C1125.11 112.941 1126.92 112.407 1128.42 111.34C1129.94 110.235 1131.18 108.71 1132.14 106.766C1133.09 104.823 1133.78 102.574 1134.2 100.02C1134.66 97.466 1134.89 94.7221 1134.89 91.7868ZM1082.74 91.7868V90.5862C1082.74 86.6985 1083 83.0589 1083.49 79.6662C1084.02 76.2742 1084.79 73.2249 1085.78 70.5188C1086.82 67.7743 1088.1 65.4305 1089.62 63.4866C1091.15 61.5427 1092.91 60.0561 1094.89 59.0269C1096.92 57.9598 1099.19 57.4263 1101.71 57.4263C1104.31 57.4263 1106.59 57.8641 1108.53 58.7409C1110.48 59.6177 1112.12 60.8756 1113.46 62.5146C1114.83 64.1536 1115.92 66.1353 1116.73 68.4603C1117.53 70.7853 1118.06 73.4157 1118.33 76.3504V102.707C1118.03 105.604 1117.47 108.215 1116.67 110.54C1115.91 112.865 1114.83 114.866 1113.46 116.543C1112.12 118.182 1110.48 119.44 1108.53 120.316C1106.59 121.193 1104.29 121.632 1101.66 121.632C1098.56 121.632 1095.83 120.907 1093.46 119.459C1091.13 117.972 1089.17 115.895 1087.56 113.227C1085.95 110.559 1084.75 107.415 1083.95 103.793C1083.15 100.134 1082.74 96.1325 1082.74 91.7868ZM1092.89 90.5862V91.7868C1092.89 94.7221 1093.08 97.466 1093.46 100.02C1093.85 102.574 1094.47 104.823 1095.35 106.766C1096.23 108.71 1097.4 110.235 1098.85 111.34C1100.3 112.407 1102.09 112.941 1104.24 112.941C1106.14 112.941 1107.71 112.655 1108.93 112.083C1110.16 111.512 1111.11 110.768 1111.8 109.854C1112.52 108.939 1113.1 107.986 1113.52 106.995V72.1767C1113.17 71.1475 1112.64 70.1755 1111.91 69.2609C1111.19 68.3079 1110.19 67.5457 1108.93 66.9737C1107.71 66.4024 1106.18 66.1164 1104.35 66.1164C1102.17 66.1164 1100.34 66.7646 1098.85 68.0603C1097.4 69.356 1096.23 71.1286 1095.35 73.3773C1094.47 75.6261 1093.85 78.237 1093.46 81.2101C1093.08 84.1449 1092.89 87.2704 1092.89 90.5862ZM1108.36 144.215V32.6129H1118.45V144.215H1108.36ZM1169.38 103.679L1191.85 58.5696H1201.99V120.431H1191.85V75.3212L1169.38 120.431H1159.3V58.5696H1169.38V103.679ZM1253.5 85.3838V93.9594H1227.2V85.3838H1253.5ZM1229.26 58.5696V120.431H1219.12V58.5696H1229.26ZM1261.75 58.5696V120.431H1251.61V58.5696H1261.75ZM1308.28 109.854V76.2931C1308.28 73.8535 1307.9 71.8907 1307.13 70.4042C1306.4 68.9176 1305.3 67.8316 1303.81 67.1457C1302.36 66.4591 1300.52 66.1164 1298.31 66.1164C1296.17 66.1164 1294.31 66.5548 1292.75 67.4311C1291.22 68.3079 1290.04 69.4706 1289.2 70.9188C1288.39 72.3675 1287.99 73.9682 1287.99 75.7212H1277.85C1277.85 73.5108 1278.33 71.3188 1279.28 69.1463C1280.28 66.9737 1281.69 65.011 1283.52 63.2579C1285.35 61.4665 1287.55 60.0561 1290.11 59.0269C1292.71 57.9598 1295.61 57.4263 1298.82 57.4263C1302.64 57.4263 1306.03 58.055 1308.97 59.3129C1311.91 60.5324 1314.22 62.5335 1315.9 65.3158C1317.58 68.0981 1318.42 71.7956 1318.42 76.4077V106.938C1318.42 108.996 1318.57 111.188 1318.88 113.513C1319.22 115.838 1319.7 117.839 1320.31 119.516V120.431H1309.82C1309.33 119.211 1308.94 117.591 1308.68 115.571C1308.41 113.513 1308.28 111.607 1308.28 109.854ZM1309.88 82.9253L1309.99 90.3576H1302.95C1300.54 90.3576 1298.35 90.6246 1296.36 91.1582C1294.41 91.6917 1292.73 92.4734 1291.32 93.502C1289.9 94.4935 1288.81 95.7319 1288.05 97.2185C1287.32 98.705 1286.96 100.401 1286.96 102.307C1286.96 104.784 1287.31 106.766 1287.99 108.253C1288.68 109.701 1289.71 110.749 1291.09 111.398C1292.46 112.045 1294.2 112.369 1296.3 112.369C1298.86 112.369 1301.11 111.779 1303.06 110.597C1305.01 109.415 1306.52 107.986 1307.59 106.309C1308.7 104.632 1309.21 103.069 1309.14 101.621L1311.37 106.366C1311.22 107.852 1310.72 109.473 1309.88 111.226C1309.08 112.941 1307.95 114.599 1306.5 116.2C1305.05 117.763 1303.33 119.058 1301.34 120.088C1299.4 121.079 1297.2 121.574 1294.76 121.574C1291.16 121.574 1288.01 120.888 1285.3 119.516C1282.63 118.144 1280.54 116.124 1279.05 113.455C1277.57 110.788 1276.82 107.491 1276.82 103.565C1276.82 100.592 1277.34 97.8471 1278.36 95.3319C1279.4 92.8161 1280.93 90.6435 1282.95 88.8143C1284.98 86.9466 1287.51 85.4979 1290.57 84.4686C1293.67 83.44 1297.24 82.9253 1301.29 82.9253H1309.88ZM1369.47 85.3838V93.9594H1343.17V85.3838H1369.47ZM1345.24 58.5696V120.431H1335.09V58.5696H1345.24ZM1377.73 58.5696V120.431H1367.58V58.5696H1377.73ZM1415.37 112.941C1417.4 112.941 1419.23 112.541 1420.87 111.74C1422.55 110.902 1423.93 109.606 1424.99 107.852C1426.06 106.061 1426.68 103.736 1426.83 100.878H1436.34C1436.19 104.994 1435.14 108.615 1433.19 111.74C1431.28 114.828 1428.76 117.248 1425.63 119.002C1422.53 120.717 1419.11 121.574 1415.37 121.574C1411.36 121.574 1407.86 120.926 1404.88 119.63C1401.94 118.335 1399.5 116.467 1397.55 114.027C1395.64 111.55 1394.2 108.558 1393.25 105.051C1392.3 101.506 1391.82 97.4855 1391.82 92.9874V86.0125C1391.82 81.515 1392.3 77.5126 1393.25 74.006C1394.2 70.4615 1395.64 67.4695 1397.55 65.0299C1399.5 62.5525 1401.94 60.6659 1404.88 59.3702C1407.86 58.0739 1411.36 57.4263 1415.37 57.4263C1419.57 57.4263 1423.2 58.322 1426.26 60.1134C1429.35 61.8665 1431.75 64.4201 1433.48 67.7743C1435.24 71.0902 1436.19 75.1114 1436.34 79.8376H1426.83C1426.68 76.7888 1426.12 74.2541 1425.17 72.234C1424.21 70.1755 1422.92 68.6511 1421.27 67.6603C1419.63 66.631 1417.66 66.1164 1415.37 66.1164C1412.7 66.1164 1410.48 66.5926 1408.72 67.5457C1407.01 68.4603 1405.64 69.7944 1404.66 71.548C1403.66 73.3011 1402.96 75.3974 1402.53 77.837C1402.15 80.276 1401.96 83.0016 1401.96 86.0125V92.9874C1401.96 95.9989 1402.15 98.7428 1402.53 101.221C1402.96 103.66 1403.64 105.756 1404.6 107.51C1405.59 109.263 1406.97 110.616 1408.72 111.569C1410.48 112.483 1412.7 112.941 1415.37 112.941ZM1445.97 92.4734V86.5844C1445.97 81.7815 1446.58 77.5699 1447.8 73.9492C1449.03 70.2901 1450.73 67.2408 1452.9 64.8012C1455.08 62.3622 1457.62 60.5324 1460.52 59.3129C1463.42 58.055 1466.54 57.4263 1469.86 57.4263C1473.26 57.4263 1476.41 58.055 1479.32 59.3129C1482.22 60.5324 1484.76 62.3622 1486.94 64.8012C1489.15 67.2408 1490.87 70.2901 1492.09 73.9492C1493.31 77.5699 1493.93 81.7815 1493.93 86.5844V92.4734C1493.93 97.2758 1493.31 101.506 1492.09 105.165C1490.87 108.787 1489.17 111.816 1486.99 114.256C1484.82 116.696 1482.27 118.525 1479.37 119.745C1476.47 120.964 1473.34 121.574 1469.98 121.574C1466.61 121.574 1463.48 120.964 1460.58 119.745C1457.67 118.525 1455.11 116.696 1452.9 114.256C1450.73 111.816 1449.03 108.787 1447.8 105.165C1446.58 101.506 1445.97 97.2758 1445.97 92.4734ZM1456.11 86.5844V92.4734C1456.11 95.8654 1456.45 98.8385 1457.14 101.392C1457.83 103.946 1458.8 106.081 1460.06 107.796C1461.32 109.511 1462.79 110.807 1464.47 111.683C1466.16 112.522 1467.99 112.941 1469.98 112.941C1472.27 112.941 1474.27 112.522 1475.99 111.683C1477.75 110.807 1479.2 109.511 1480.34 107.796C1481.49 106.081 1482.35 103.946 1482.92 101.392C1483.5 98.8385 1483.78 95.8654 1483.78 92.4734V86.5844C1483.78 83.1918 1483.44 80.2382 1482.75 77.7224C1482.07 75.1687 1481.09 73.034 1479.83 71.3188C1478.57 69.5658 1477.08 68.27 1475.36 67.4311C1473.68 66.5548 1471.85 66.1164 1469.86 66.1164C1467.92 66.1164 1466.1 66.5548 1464.42 67.4311C1462.73 68.27 1461.26 69.5658 1460.01 71.3188C1458.78 73.034 1457.83 75.1687 1457.14 77.7224C1456.45 80.2382 1456.11 83.1918 1456.11 86.5844ZM1531.97 93.2167H1515.41L1515.3 84.7546H1528.59C1531.23 84.7546 1533.41 84.4308 1535.12 83.7827C1536.88 83.1351 1538.2 82.1632 1539.08 80.8669C1539.95 79.5711 1540.4 77.9699 1540.4 76.0645C1540.4 74.5779 1540.15 73.2822 1539.65 72.1767C1539.16 71.0334 1538.41 70.0993 1537.42 69.3749C1536.46 68.6127 1535.26 68.0603 1533.81 67.717C1532.36 67.3359 1530.66 67.1457 1528.71 67.1457H1517.99V120.431H1507.91V58.5696H1528.71C1532.07 58.5696 1535.08 58.9123 1537.76 59.5988C1540.47 60.2848 1542.76 61.3329 1544.64 62.7433C1546.55 64.1152 1548 65.8689 1548.99 68.003C1550.02 70.1377 1550.54 72.6529 1550.54 75.5498C1550.54 77.4175 1550.21 79.19 1549.56 80.8669C1548.91 82.5442 1547.94 84.0308 1546.64 85.3265C1545.38 86.6223 1543.81 87.6899 1541.94 88.5283C1540.07 89.3283 1537.92 89.843 1535.47 90.0716L1531.97 93.2167ZM1531.97 120.431H1511.63L1516.85 111.855H1531.97C1534.3 111.855 1536.22 111.493 1537.7 110.768C1539.19 110.006 1540.3 108.939 1541.03 107.567C1541.79 106.157 1542.17 104.479 1542.17 102.535C1542.17 100.592 1541.79 98.9337 1541.03 97.5617C1540.3 96.1514 1539.19 95.0843 1537.7 94.3599C1536.22 93.5978 1534.3 93.2167 1531.97 93.2167H1518.39L1518.51 84.7546H1535.3L1538.85 87.9564C1541.79 88.2234 1544.26 89.0618 1546.24 90.4722C1548.27 91.8825 1549.78 93.674 1550.77 95.8465C1551.8 97.9806 1552.31 100.306 1552.31 102.821C1552.31 105.718 1551.86 108.272 1550.94 110.483C1550.02 112.693 1548.68 114.542 1546.93 116.029C1545.17 117.477 1543.03 118.582 1540.51 119.344C1537.99 120.069 1535.14 120.431 1531.97 120.431ZM1574.6 79.8376H1589.73C1594.01 79.8376 1597.6 80.7144 1600.5 82.468C1603.41 84.1832 1605.6 86.5655 1607.1 89.6143C1608.58 92.6258 1609.33 96.0563 1609.33 99.9056C1609.33 102.764 1608.9 105.451 1608.07 107.967C1607.23 110.444 1605.96 112.617 1604.29 114.485C1602.64 116.352 1600.6 117.82 1598.15 118.887C1595.75 119.916 1592.94 120.431 1589.73 120.431H1567.04V58.5696H1577.13V111.74H1589.73C1592.1 111.74 1593.97 111.188 1595.34 110.082C1596.72 108.977 1597.69 107.548 1598.27 105.795C1598.88 104.041 1599.19 102.212 1599.19 100.306C1599.19 98.438 1598.88 96.6087 1598.27 94.8173C1597.69 93.0258 1596.72 91.5393 1595.34 90.3576C1593.97 89.1381 1592.1 88.5283 1589.73 88.5283H1574.6V79.8376ZM1628.24 58.5696V120.431H1618.09V58.5696H1628.24ZM1653.45 58.5696L1663.87 81.0955L1674.48 58.5696H1686.22L1669.43 89.0997L1686.68 120.431H1675.05L1664.1 97.2185L1653.11 120.431H1641.41L1658.66 89.0997L1641.87 58.5696H1653.45Z" fill="#0D233A"/>
<path d="M771.095 185.044V246.905H760.952V185.044H771.095ZM805.187 185.044L780.261 220.491H767.717L766.109 211.229H776.137L793.04 185.044H805.187ZM793.959 246.905L775.793 218.89L782.271 211.229L806.681 246.905H793.959ZM813.039 218.947V213.059C813.039 208.256 813.648 204.044 814.871 200.423C816.094 196.764 817.794 193.715 819.971 191.276C822.148 188.836 824.692 187.006 827.593 185.787C830.499 184.529 833.612 183.9 836.931 183.9C840.331 183.9 843.485 184.529 846.385 185.787C849.291 187.006 851.83 188.836 854.007 191.276C856.223 193.715 857.941 196.764 859.164 200.423C860.388 204.044 860.996 208.256 860.996 213.059V218.947C860.996 223.75 860.388 227.981 859.164 231.64C857.941 235.261 856.241 238.291 854.064 240.73C851.887 243.17 849.349 245 846.443 246.219C843.542 247.439 840.406 248.048 837.046 248.048C833.686 248.048 830.556 247.439 827.65 246.219C824.75 245 822.188 243.17 819.971 240.73C817.794 238.291 816.094 235.261 814.871 231.64C813.648 227.981 813.039 223.75 813.039 218.947ZM823.182 213.059V218.947C823.182 222.34 823.526 225.313 824.21 227.866C824.899 230.42 825.875 232.555 827.133 234.27C828.397 235.985 829.867 237.281 831.544 238.158C833.227 238.996 835.059 239.415 837.046 239.415C839.338 239.415 841.342 238.996 843.065 238.158C844.823 237.281 846.27 235.985 847.419 234.27C848.562 232.555 849.423 230.42 849.998 227.866C850.572 225.313 850.859 222.34 850.859 218.947V213.059C850.859 209.666 850.515 206.712 849.825 204.197C849.136 201.643 848.165 199.509 846.902 197.793C845.644 196.04 844.151 194.744 842.434 193.906C840.751 193.029 838.919 192.591 836.931 192.591C834.984 192.591 833.169 193.029 831.487 193.906C829.81 194.744 828.339 196.04 827.076 197.793C825.852 199.509 824.899 201.643 824.21 204.197C823.526 206.712 823.182 209.666 823.182 213.059ZM909.362 211.858V220.434H883.057V211.858H909.362ZM885.119 185.044V246.905H874.982V185.044H885.119ZM917.609 185.044V246.905H907.466V185.044H917.609ZM955.257 239.415C957.279 239.415 959.111 239.015 960.754 238.215C962.437 237.376 963.815 236.08 964.883 234.327C965.952 232.536 966.56 230.211 966.715 227.352H976.227C976.077 231.468 975.026 235.089 973.073 238.215C971.167 241.302 968.645 243.722 965.515 245.476C962.419 247.191 959.002 248.048 955.257 248.048C951.243 248.048 947.751 247.401 944.77 246.104C941.829 244.809 939.382 242.941 937.435 240.501C935.523 238.024 934.093 235.032 933.139 231.525C932.186 227.981 931.704 223.96 931.704 219.462V212.487C931.704 207.989 932.186 203.987 933.139 200.481C934.093 196.936 935.523 193.944 937.435 191.505C939.382 189.027 941.829 187.14 944.77 185.844C947.751 184.549 951.243 183.9 955.257 183.9C959.456 183.9 963.086 184.796 966.141 186.588C969.237 188.341 971.643 190.895 973.361 194.248C975.118 197.565 976.077 201.586 976.227 206.312H966.715C966.56 203.263 966.009 200.728 965.056 198.708C964.096 196.65 962.798 195.125 961.156 194.134C959.513 193.105 957.549 192.591 955.257 192.591C952.581 192.591 950.364 193.067 948.606 194.02C946.889 194.935 945.534 196.269 944.54 198.022C943.546 199.775 942.84 201.871 942.421 204.311C942.036 206.751 941.846 209.476 941.846 212.487V219.462C941.846 222.473 942.036 225.217 942.421 227.695C942.84 230.134 943.529 232.231 944.483 233.984C945.476 235.737 946.855 237.091 948.606 238.043C950.364 238.958 952.581 239.415 955.257 239.415ZM1002.35 240.501L1016.17 185.044H1026.94L1006.48 256.453C1005.98 257.977 1005.32 259.616 1004.48 261.37C1003.67 263.161 1002.64 264.857 1001.38 266.458C1000.12 268.059 998.614 269.355 996.857 270.346C995.099 271.375 993.038 271.889 990.666 271.889C989.942 271.889 989.006 271.775 987.857 271.547C986.749 271.318 985.95 271.127 985.45 270.975V262.399C985.68 262.437 986.042 262.475 986.542 262.513C987.036 262.59 987.403 262.627 987.627 262.627C989.614 262.627 991.297 262.304 992.67 261.655C994.083 261.046 995.289 259.998 996.283 258.511C997.276 257.063 998.115 255.062 998.804 252.508L1002.35 240.501ZM993.417 185.044L1005.74 233.069L1008.37 244.218L1001.15 248.106L982.361 185.044H993.417ZM1069.11 185.044V193.791H1044.41V185.044H1069.11ZM1078.16 185.044V246.905H1068.08V185.044H1078.16ZM1042.01 185.044H1052.15L1050.72 214.888C1050.49 219.5 1050.1 223.578 1049.57 227.123C1049.08 230.63 1048.37 233.641 1047.45 236.156C1046.57 238.672 1045.46 240.73 1044.13 242.331C1042.83 243.894 1041.26 245.056 1039.43 245.819C1037.64 246.543 1035.55 246.905 1033.18 246.905H1030.15V237.586L1032.15 237.414C1033.49 237.3 1034.64 236.919 1035.59 236.271C1036.58 235.623 1037.38 234.67 1038 233.412C1038.65 232.116 1039.16 230.458 1039.54 228.438C1039.96 226.418 1040.29 224.017 1040.52 221.235C1040.75 218.452 1040.92 215.212 1041.04 211.515L1042.01 185.044ZM1102.91 206.312H1118.04C1122.32 206.312 1125.91 207.189 1128.82 208.942C1131.72 210.657 1133.91 213.04 1135.41 216.089C1136.89 219.1 1137.64 222.53 1137.64 226.38C1137.64 229.239 1137.22 231.926 1136.38 234.441C1135.54 236.919 1134.28 239.091 1132.6 240.959C1130.95 242.826 1128.91 244.294 1126.47 245.361C1124.06 246.39 1121.25 246.905 1118.04 246.905H1095.35V185.044H1105.44V238.215H1118.04C1120.41 238.215 1122.28 237.662 1123.66 236.557C1125.03 235.452 1126.01 234.022 1126.58 232.269C1127.19 230.516 1127.5 228.686 1127.5 226.78C1127.5 224.913 1127.19 223.083 1126.58 221.291C1126.01 219.5 1125.03 218.013 1123.66 216.832C1122.28 215.612 1120.41 215.002 1118.04 215.002H1102.91V206.312ZM1168.87 185.044V246.905H1158.72V185.044H1168.87ZM1185.77 185.044V193.62H1142.05V185.044H1185.77ZM1226 236.328V202.767C1226 200.328 1225.61 198.365 1224.85 196.879C1224.12 195.392 1223.02 194.306 1221.53 193.62C1220.07 192.934 1218.24 192.591 1216.03 192.591C1213.88 192.591 1212.03 193.029 1210.47 193.906C1208.94 194.783 1207.76 195.945 1206.92 197.393C1206.11 198.842 1205.71 200.442 1205.71 202.196H1195.57C1195.57 199.985 1196.04 197.793 1197 195.621C1198 193.448 1199.41 191.485 1201.24 189.732C1203.07 187.941 1205.27 186.53 1207.83 185.501C1210.43 184.434 1213.33 183.9 1216.54 183.9C1220.36 183.9 1223.74 184.529 1226.68 185.787C1229.63 187.006 1231.94 189.008 1233.62 191.79C1235.3 194.573 1236.14 198.27 1236.14 202.882V233.412C1236.14 235.47 1236.29 237.662 1236.59 239.987C1236.94 242.312 1237.41 244.313 1238.03 245.99V246.905H1227.54C1227.05 245.686 1226.66 244.065 1226.4 242.045C1226.13 239.987 1226 238.081 1226 236.328ZM1227.6 209.399L1227.71 216.832H1220.67C1218.26 216.832 1216.06 217.099 1214.08 217.632C1212.13 218.166 1210.45 218.947 1209.04 219.977C1207.62 220.968 1206.53 222.207 1205.77 223.693C1205.04 225.179 1204.68 226.875 1204.68 228.781C1204.68 231.259 1205.02 233.241 1205.71 234.727C1206.4 236.175 1207.43 237.224 1208.81 237.872C1210.18 238.52 1211.92 238.844 1214.02 238.844C1216.58 238.844 1218.83 238.253 1220.78 237.071C1222.73 235.89 1224.24 234.461 1225.31 232.783C1226.42 231.106 1226.93 229.544 1226.85 228.095L1229.09 232.841C1228.94 234.327 1228.44 235.947 1227.6 237.7C1226.79 239.415 1225.67 241.073 1224.22 242.674C1222.77 244.237 1221.05 245.533 1219.06 246.562C1217.11 247.553 1214.92 248.048 1212.47 248.048C1208.88 248.048 1205.73 247.362 1203.02 245.99C1200.35 244.618 1198.26 242.598 1196.77 239.93C1195.28 237.262 1194.54 233.965 1194.54 230.039C1194.54 227.066 1195.05 224.322 1196.08 221.806C1197.12 219.291 1198.65 217.118 1200.67 215.288C1202.7 213.421 1205.23 211.973 1208.29 210.943C1211.39 209.914 1214.96 209.399 1219.01 209.399H1227.6ZM1252.81 246.905V185.044H1262.96V238.215H1285.35V185.044H1295.5V246.905H1252.81ZM1302.03 238.215L1301 265.258H1292.01V246.905H1284.96V238.215H1302.03ZM1324.43 230.153L1346.9 185.044H1357.04V246.905H1346.9V201.795L1324.43 246.905H1314.35V185.044H1324.43V230.153ZM1384.26 230.153L1406.72 185.044H1416.86V246.905H1406.72V201.795L1384.26 246.905H1374.17V185.044H1384.26V230.153ZM1404.03 162.632H1412.62C1412.62 165.605 1411.93 168.254 1410.56 170.579C1409.18 172.866 1407.21 174.657 1404.66 175.954C1402.1 177.249 1399.06 177.897 1395.54 177.897C1390.24 177.897 1386.03 176.487 1382.94 173.666C1379.88 170.808 1378.35 167.129 1378.35 162.632H1386.95C1386.95 164.881 1387.6 166.863 1388.9 168.578C1390.2 170.293 1392.41 171.151 1395.54 171.151C1398.6 171.151 1400.77 170.293 1402.08 168.578C1403.38 166.863 1404.03 164.881 1404.03 162.632Z" fill="#0D233A"/>
<path d="M102.248 151.833L109.659 153.7C108.106 159.774 105.304 164.411 101.255 167.613C97.2315 170.789 92.3043 172.377 86.4724 172.377C80.4366 172.377 75.5214 171.158 71.7273 168.718C67.9579 166.253 65.0804 162.696 63.0944 158.046C61.133 153.396 60.1526 148.403 60.1526 143.066C60.1526 137.247 61.2605 132.178 63.4763 127.859C65.7174 123.513 68.8878 120.222 72.988 117.987C77.1135 115.725 81.6462 114.594 86.5867 114.594C92.1894 114.594 96.9007 116.017 100.721 118.863C104.541 121.709 107.202 125.711 108.705 130.87L101.408 132.585C100.11 128.519 98.2252 125.559 95.7549 123.704C93.2847 121.849 90.1775 120.922 86.4339 120.922C82.1304 120.922 78.5269 121.951 75.6236 124.009C72.7456 126.067 70.7211 128.837 69.55 132.318C68.3783 135.774 67.7925 139.344 67.7925 143.029C67.7925 147.78 68.48 151.935 69.8555 155.492C71.2563 159.024 73.4205 161.667 76.3496 163.42C79.2782 165.173 82.4485 166.05 85.8613 166.05C90.0121 166.05 93.5265 164.856 96.4039 162.467C99.2819 160.079 101.23 156.534 102.248 151.833ZM119.209 171.425V115.547H156.988V122.141H126.62V139.446H152.901V146.04H126.62V171.425H119.209ZM206.61 151.833L214.021 153.7C212.467 159.774 209.666 164.411 205.617 167.613C201.593 170.789 196.665 172.377 190.833 172.377C184.798 172.377 179.883 171.158 176.088 168.718C172.319 166.253 169.442 162.696 167.455 158.046C165.494 153.396 164.514 148.403 164.514 143.066C164.514 137.247 165.622 132.178 167.837 127.859C170.078 123.513 173.249 120.222 177.349 117.987C181.474 115.725 186.008 114.594 190.948 114.594C196.551 114.594 201.262 116.017 205.081 118.863C208.901 121.709 211.563 125.711 213.065 130.87L205.77 132.585C204.47 128.519 202.586 125.559 200.116 123.704C197.645 121.849 194.539 120.922 190.795 120.922C186.491 120.922 182.888 121.951 179.984 124.009C177.107 126.067 175.082 128.837 173.911 132.318C172.74 135.774 172.154 139.344 172.154 143.029C172.154 147.78 172.841 151.935 174.216 155.492C175.617 159.024 177.782 161.667 180.71 163.42C183.639 165.173 186.809 166.05 190.222 166.05C194.373 166.05 197.887 164.856 200.765 162.467C203.643 160.079 205.591 156.534 206.61 151.833Z" fill="#8EA5BF"/>
</svg>
