<svg width="32" height="32" viewBox="0 0 32 32" fill="none" xmlns="http://www.w3.org/2000/svg">
    <path d="M3.75 1.75C2.64543 1.75 1.75 2.64543 1.75 3.75V22.25C1.75 23.3546 2.64543 24.25 3.75 24.25H28.25C29.3546 24.25 30.25 23.3546 30.25 22.25V3.75C30.25 2.64543 29.3546 1.75 28.25 1.75H3.75Z"
    />
    <path fill-rule="evenodd" clip-rule="evenodd"
          d="M8.75 29C8.75 28.3096 9.30964 27.75 10 27.75H22C22.6904 27.75 23.25 28.3096 23.25 29C23.25 29.6904 22.6904 30.25 22 30.25H10C9.30964 30.25 8.75 29.6904 8.75 29Z"
    />
    <path d="M21.4 8.8C21.4 7.80589 22.2059 7 23.2 7C24.1941 7 25 7.80589 25 8.8C25 9.79411 24.1941 10.6 23.2 10.6C23.1134 10.6 23.0281 10.5939 22.9448 10.582L17.5982 16.1514C16.9881 16.7869 15.9719 16.7869 15.3618 16.1514L13.6 14.3162L10.5702 17.4722C10.5898 17.5785 10.6 17.6881 10.6 17.8C10.6 18.7941 9.79411 19.6 8.8 19.6C7.80589 19.6 7 18.7941 7 17.8C7 16.8059 7.80589 16 8.8 16C8.88664 16 8.97186 16.0061 9.05523 16.018L12.4818 12.4486C13.0919 11.8131 14.1081 11.8131 14.7182 12.4486L16.48 14.2838L21.4298 9.12781C21.4102 9.02151 21.4 8.91195 21.4 8.8Z"
          fill="url(#paint0)"/>
    <defs>
        <linearGradient id="paint0" x1="10.375" y1="7" x2="23.7286" y2="11.3626" gradientUnits="userSpaceOnUse">
            <stop offset="0" stop-color="#89A6BE"/>
            <stop offset="0.789654" stop-color="#68869F"/>
        </linearGradient>
    </defs>
</svg>
