<svg width="16" height="16" viewBox="0 0 16 16" fill="none" xmlns="http://www.w3.org/2000/svg">
    <path fill-rule="evenodd" clip-rule="evenodd"
          d="M12.3293 4.32926C12.3293 6.72028 10.391 8.65856 8.00004 8.65856C5.61028 8.65562 3.67371 6.71906 3.67078 4.32929C3.67078 1.93828 5.60903 0 8.00004 0C10.3911 0 12.3293 1.93825 12.3293 4.32926ZM10.3312 4.32929C10.3312 3.04181 9.28749 1.99813 8.00004 1.99813C6.71259 1.99813 5.66888 3.04181 5.66888 4.32929C5.66888 5.61678 6.71256 6.66046 8.00004 6.66046C9.28752 6.66046 10.3312 5.61678 10.3312 4.32929Z"
          fill="#E1E8F2"/>
    <path d="M12.9954 9.31126C12.9947 9.87464 12.7112 10.4001 12.2407 10.71C11.6381 11.1106 10.9817 11.4239 10.2913 11.6404C10.1732 11.6764 10.0517 11.7103 9.92698 11.7423L11.9364 13.7085C11.9475 13.7191 11.9584 13.73 11.9691 13.7411C12.481 14.2695 12.4676 15.1128 11.9392 15.6247C11.4107 16.1365 10.5674 16.1231 10.0555 15.5947L8.00012 13.4673L5.9487 15.5907C5.93808 15.6018 5.92728 15.6126 5.91629 15.6233C5.38825 16.1356 4.54495 16.1228 4.03265 15.5948C3.52035 15.0668 3.53311 14.2234 4.06112 13.7111L6.07389 11.743C5.9491 11.7119 5.82812 11.6781 5.71089 11.6417C5.01969 11.4244 4.36268 11.1105 3.75937 10.7093C3.28912 10.3991 3.00573 9.87386 3.00473 9.31057C2.9989 8.8432 3.26287 8.41432 3.68276 8.20895C4.11466 7.99496 4.6304 8.04345 5.01485 8.33418C6.79391 9.63118 9.20687 9.63118 10.9859 8.33418C11.3698 8.04192 11.8864 7.99337 12.318 8.20895C12.7381 8.41435 13.0019 8.8437 12.9954 9.31126Z"
          fill="#E1E8F2"/>
</svg>
