<svg width="16" height="16" viewBox="0 0 16 16" fill="none" xmlns="http://www.w3.org/2000/svg">
<path fill-rule="evenodd" clip-rule="evenodd" d="M12.3286 4.32926C12.3286 6.72028 10.3903 8.65856 7.99931 8.65856C5.60954 8.65562 3.67298 6.71906 3.67004 4.32929C3.67004 1.93828 5.60829 0 7.99931 0C10.3903 0 12.3286 1.93825 12.3286 4.32926ZM10.3305 4.32929C10.3305 3.04181 9.28676 1.99813 7.99931 1.99813C6.71185 1.99813 5.66814 3.04181 5.66814 4.32929C5.66814 5.61678 6.71182 6.66046 7.99931 6.66046C9.28679 6.66046 10.3305 5.61678 10.3305 4.32929Z" fill="url(#paint0_linear)"/>
<path d="M12.9947 9.31126C12.994 9.87464 12.7105 10.4001 12.24 10.71C11.6374 11.1106 10.981 11.4239 10.2906 11.6404C10.1725 11.6764 10.051 11.7103 9.92624 11.7423L11.9357 13.7085C11.9468 13.7191 11.9577 13.73 11.9684 13.7411C12.4803 14.2695 12.4668 15.1128 11.9384 15.6247C11.41 16.1365 10.5667 16.1231 10.0548 15.5947L7.99939 13.4673L5.94797 15.5907C5.93735 15.6018 5.92655 15.6126 5.91556 15.6233C5.38752 16.1356 4.54422 16.1228 4.03191 15.5948C3.51961 15.0668 3.53238 14.2234 4.06039 13.7111L6.07316 11.743C5.94837 11.7119 5.82739 11.6781 5.71016 11.6417C5.01896 11.4244 4.36195 11.1105 3.75864 10.7093C3.28839 10.3991 3.005 9.87386 3.004 9.31057C2.99816 8.8432 3.26213 8.41432 3.68202 8.20895C4.11393 7.99496 4.62967 8.04345 5.01412 8.33418C6.79317 9.63118 9.20614 9.63118 10.9852 8.33418C11.3691 8.04192 11.8857 7.99337 12.3173 8.20895C12.7374 8.41435 13.0012 8.8437 12.9947 9.31126Z" fill="url(#paint1_linear)"/>
<defs>
<linearGradient id="paint0_linear" x1="4.87719" y1="-1.44462e-06" x2="12.9162" y2="1.14796" gradientUnits="userSpaceOnUse">
<stop stop-color="#89A6BE"/>
<stop offset="0.789654" stop-color="#68869F"/>
</linearGradient>
<linearGradient id="paint1_linear" x1="4.87719" y1="-1.44462e-06" x2="12.9162" y2="1.14796" gradientUnits="userSpaceOnUse">
<stop stop-color="#89A6BE"/>
<stop offset="0.789654" stop-color="#68869F"/>
</linearGradient>
</defs>
</svg>
