<svg width="32" height="32" viewBox="0 0 32 32" fill="none" xmlns="http://www.w3.org/2000/svg">
    <path d="M6 4C6 3.44772 6.44772 3 7 3C7.55228 3 8 3.44772 8 4V8C8 8.55228 7.55228 9 7 9C6.44772 9 6 8.55228 6 8V4Z"
          fill="url(#paint0_linear)"/>
    <path d="M24 4C24 3.44772 24.4477 3 25 3C25.5523 3 26 3.44772 26 4V8C26 8.55228 25.5523 9 25 9C24.4477 9 24 8.55228 24 8V4Z"
          fill="url(#paint1_linear)"/>
    <path d="M12 4C12 3.44772 12.4477 3 13 3C13.5523 3 14 3.44772 14 4V8C14 8.55228 13.5523 9 13 9C12.4477 9 12 8.55228 12 8V4Z"
          fill="url(#paint2_linear)"/>
    <path d="M18 4C18 3.44772 18.4477 3 19 3C19.5523 3 20 3.44772 20 4V8C20 8.55228 19.5523 9 19 9C18.4477 9 18 8.55228 18 8V4Z"
          fill="url(#paint3_linear)"/>
    <path fill-rule="evenodd" clip-rule="evenodd"
          d="M4.5 6C4.77614 6 5 6.22386 5 6.5V8C5 9.10457 5.89543 10 7 10C8.10457 10 9 9.10457 9 8V6.5C9 6.22386 9.22386 6 9.5 6H10.5C10.7761 6 11 6.22386 11 6.5V8C11 9.10457 11.8954 10 13 10C14.1046 10 15 9.10457 15 8V6.5C15 6.22386 15.2239 6 15.5 6H16.5C16.7761 6 17 6.22386 17 6.5V8C17 9.10457 17.8954 10 19 10C20.1046 10 21 9.10457 21 8V6.5C21 6.22386 21.2239 6 21.5 6H22.5C22.7761 6 23 6.22386 23 6.5V8C23 9.10457 23.8954 10 25 10C26.1046 10 27 9.10457 27 8V6.5C27 6.22386 27.2239 6 27.5 6H28C29.1046 6 30 6.89543 30 8V28C30 29.1046 29.1046 30 28 30H4C2.89543 30 2 29.1046 2 28V8C2 6.89543 2.89543 6 4 6H4.5ZM6 13C5.44772 13 5 13.4477 5 14V18C5 18.5523 5.44772 19 6 19H10C10.5523 19 11 18.5523 11 18V14C11 13.4477 10.5523 13 10 13H6ZM6 21C5.44772 21 5 21.4477 5 22V26C5 26.5523 5.44772 27 6 27H10C10.5523 27 11 26.5523 11 26V22C11 21.4477 10.5523 21 10 21H6ZM13 14C13 13.4477 13.4477 13 14 13H18C18.5523 13 19 13.4477 19 14V18C19 18.5523 18.5523 19 18 19H14C13.4477 19 13 18.5523 13 18V14ZM14 21C13.4477 21 13 21.4477 13 22V26C13 26.5523 13.4477 27 14 27H18C18.5523 27 19 26.5523 19 26V22C19 21.4477 18.5523 21 18 21H14ZM21 14C21 13.4477 21.4477 13 22 13H26C26.5523 13 27 13.4477 27 14V18C27 18.5523 26.5523 19 26 19H22C21.4477 19 21 18.5523 21 18V14ZM22 21C21.4477 21 21 21.4477 21 22V26C21 26.5523 21.4477 27 22 27H26C26.5523 27 27 26.5523 27 26V22C27 21.4477 26.5523 21 26 21H22Z"
          />
    <defs>
        <linearGradient id="paint0_linear" x1="6.375" y1="3" x2="8.00761" y2="3.12445" gradientUnits="userSpaceOnUse">
            <stop stop-color="#89A6BE"/>
            <stop offset="0.789654" stop-color="#68869F"/>
        </linearGradient>
        <linearGradient id="paint1_linear" x1="24.375" y1="3" x2="26.0076" y2="3.12445" gradientUnits="userSpaceOnUse">
            <stop stop-color="#89A6BE"/>
            <stop offset="0.789654" stop-color="#68869F"/>
        </linearGradient>
        <linearGradient id="paint2_linear" x1="12.375" y1="3" x2="14.0076" y2="3.12445" gradientUnits="userSpaceOnUse">
            <stop stop-color="#89A6BE"/>
            <stop offset="0.789654" stop-color="#68869F"/>
        </linearGradient>
        <linearGradient id="paint3_linear" x1="18.375" y1="3" x2="20.0076" y2="3.12445" gradientUnits="userSpaceOnUse">
            <stop stop-color="#89A6BE"/>
            <stop offset="0.789654" stop-color="#68869F"/>
        </linearGradient>
    </defs>
</svg>
