<svg width="32" height="32" viewBox="0 0 32 32" fill="none" xmlns="http://www.w3.org/2000/svg">
    <path d="M4.29006 10.7636C4.40982 9.75756 5.26291 9 6.27603 9H25.724C26.7371 9 27.5902 9.75756 27.71 10.7636L29.7338 27.7636C29.8754 28.9535 28.9461 30 27.7478 30H4.25222C3.05393 30 2.12459 28.9535 2.26625 27.7636L4.29006 10.7636Z"
          />
    <path fill-rule="evenodd" clip-rule="evenodd"
          d="M8.84961 5.99998C8.84961 3.70799 10.7076 1.84998 12.9996 1.84998H18.9996C21.2916 1.84998 23.1496 3.70799 23.1496 5.99998V8.99998H20.8496V5.99998C20.8496 4.97825 20.0213 4.14998 18.9996 4.14998H12.9996C11.9779 4.14998 11.1496 4.97825 11.1496 5.99998V8.99998H8.84961V5.99998Z"
          fill="url(#paint0_linear)"/>
    <defs>
        <linearGradient id="paint0_linear" x1="11.5309" y1="1.84997" x2="21.2406" y2="6.29097"
                        gradientUnits="userSpaceOnUse">
            <stop stop-color="#89A6BE"/>
            <stop offset="0.789654" stop-color="#68869F"/>
        </linearGradient>
    </defs>
</svg>
