<svg width="36" height="40" viewBox="0 0 36 40" fill="none" xmlns="http://www.w3.org/2000/svg">
<path fill-rule="evenodd" clip-rule="evenodd" d="M18.717 0.117181C18.2517 -0.0390603 17.7487 -0.0390601 17.2835 0.117181L1.55015 5.40079C0.625505 5.7113 0.000442917 6.57845 0.000358928 7.56209C0.000100866 10.5841 -0.000362656 17.8655 0.000494524 23.971C0.00080009 26.1477 0.90359 28.1515 2.27845 29.9406C3.6528 31.7291 5.51106 33.3195 7.45656 34.678C11.3475 37.3948 15.6343 39.2159 17.239 39.8525C17.7346 40.0491 18.2659 40.0492 18.7614 39.8526C20.3663 39.216 24.6534 37.3949 28.5444 34.678C30.49 33.3195 32.3483 31.7291 33.7226 29.9406C35.0974 28.1515 36 26.1476 36 23.971V7.56229C36 6.57856 35.3749 5.71128 34.4502 5.40073L18.717 0.117181ZM2.32094 8.31811C2.32097 7.89173 2.5918 7.51541 2.99331 7.38058L17.6893 2.44534C17.8911 2.37756 18.1094 2.37756 18.3112 2.44534L33.007 7.38051C33.4085 7.51536 33.6794 7.89393 33.6794 8.32034V23.971C33.6794 25.4697 33.0608 26.9825 31.8875 28.5094C30.7108 30.0408 29.0588 31.4742 27.2225 32.7564C23.8631 35.1021 20.132 36.7607 18.3383 37.4956C18.1063 37.5907 17.8485 37.5907 17.6166 37.4954C15.8282 36.7604 12.1375 35.1019 8.7785 32.7564C6.94224 31.4742 5.29027 30.0408 4.11343 28.5093C2.94004 26.9824 2.32135 25.4695 2.32114 23.9707C2.32034 18.3269 2.32068 11.6782 2.32094 8.31811Z" fill="#B5BFCD"/>
<path d="M17.9994 34.8717C17.9994 35.1999 18.3293 35.4233 18.6292 35.2949C18.8814 35.1869 19.1584 35.0656 19.456 34.9314C20.9309 34.2665 22.8759 33.3015 24.8017 32.0907C26.7458 30.8685 28.5585 29.4648 29.8575 27.955C31.1606 26.4403 31.7659 25.036 31.7659 23.7413V10.097C31.7659 9.50002 31.3868 8.97002 30.8246 8.78124L18.6034 4.67708C18.3063 4.57729 17.9994 4.80011 17.9994 5.11566V34.8717Z" fill="#B5BFCD"/>
</svg>
