<svg width="24" height="24" viewBox="0 0 24 24" fill="none" xmlns="http://www.w3.org/2000/svg">
<rect width="24" height="24" fill="white"/>
<path fill-rule="evenodd" clip-rule="evenodd" d="M20.1614 1.57132C20.1106 1.52055 20.0283 1.52055 19.9775 1.57132L11.6445 9.90433C11.5703 9.97855 11.5256 10.0772 11.5186 10.1819L11.3642 12.4974C11.359 12.5759 11.4241 12.641 11.5025 12.6358L13.8181 12.4814C13.9228 12.4744 14.0215 12.4297 14.0957 12.3555L22.4287 4.02247C22.4794 3.9717 22.4794 3.8894 22.4287 3.83863L20.1614 1.57132ZM20.6822 0.253825C20.3438 -0.0846083 19.7951 -0.0846083 19.4567 0.253825L10.7253 8.98515C10.4285 9.28201 10.2495 9.67653 10.2215 10.0954L10.0013 13.3992C9.97861 13.7393 10.2607 14.0214 10.6008 13.9987L13.9046 13.7785C14.3235 13.7505 14.718 13.5715 15.0149 13.2747L23.7462 4.54334C24.0846 4.2049 24.0846 3.6562 23.7462 3.31776L20.6822 0.253825Z" fill="#F15045"/>
<path d="M4.53972 3C3.68936 3 3 3.68936 3 4.53972V19.4603C3 20.3106 3.68936 21 4.53972 21H19.4603C20.3106 21 21 20.3106 21 19.4603V12.3792C21 12.1698 20.8302 12 20.6208 12H19.9576C19.7482 12 19.5784 12.1698 19.5784 12.3792V19.4603C19.5784 19.5255 19.5255 19.5784 19.4603 19.5784H4.53972C4.47448 19.5784 4.4216 19.5255 4.4216 19.4603V4.53972C4.4216 4.47448 4.47448 4.4216 4.53972 4.4216H11.6232C11.8327 4.4216 12.0025 4.25181 12.0025 4.04237V3.37923C12.0025 3.16979 11.8327 3 11.6232 3H4.53972Z" fill="#F15045"/>
</svg>
