<svg width="32" height="32" viewBox="0 0 32 32" fill="none" xmlns="http://www.w3.org/2000/svg">
    <path d="M25.687 24.5867C26.093 24.9926 26.7595 24.976 27.1089 24.5204C27.2938 24.2791 27.4712 24.0315 27.6407 23.778C28.7481 22.1209 29.4887 20.2467 29.8134 18.2804C30.0834 16.6437 30.0602 14.9746 29.7473 13.3508C29.6428 12.8085 29.0908 12.4923 28.5573 12.6353L21.4741 14.5332C20.9409 14.6761 20.6357 15.226 20.6617 15.7774C20.6651 15.8511 20.6669 15.9253 20.6669 15.9999C20.6669 16.7055 20.5101 17.3747 20.2297 17.9744C20.0228 18.4166 20.0568 18.9567 20.4021 19.3019L25.687 24.5867Z"
          fill="url(#paint0_linear)"/>
    <path d="M16 3.00003C16 2.44774 15.5517 1.99631 15.0008 2.03572C13.045 2.17567 11.1364 2.72528 9.40046 3.65313C7.37 4.73844 5.63853 6.30775 4.35943 8.22205C3.08033 10.1364 2.29308 12.3366 2.06742 14.6278C1.84175 16.919 2.18463 19.2306 3.06569 21.3576C3.94675 23.4847 5.33879 25.3616 7.1185 26.8222C8.89822 28.2828 11.0107 29.2819 13.2688 29.7311C15.5268 30.1802 17.8608 30.0656 20.064 29.3972C21.6798 28.9071 23.1887 28.1302 24.5205 27.1087C24.9761 26.7592 24.9927 26.0926 24.5868 25.6867L19.3022 20.4021C18.9569 20.0568 18.4168 20.0228 17.9744 20.2297C17.3748 20.5101 16.7057 20.6667 16 20.6667C13.4227 20.6667 11.3333 18.5774 11.3333 16C11.3333 13.7634 12.9069 11.8942 15.0073 11.4392C15.5471 11.3222 16 10.8857 16 10.3334L16 3.00003Z"
          />
    <defs>
        <linearGradient id="paint0_linear" x1="21.9576" y1="12.601" x2="29.8176" y2="14.0503"
                        gradientUnits="userSpaceOnUse">
            <stop stop-color="#89A6BE"/>
            <stop offset="0.789654" stop-color="#68869F"/>
        </linearGradient>
    </defs>
</svg>
