<svg width="32" height="32" viewBox="0 0 32 32" fill="none" xmlns="http://www.w3.org/2000/svg">
<rect x="3" y="3" width="26" height="26" rx="3" fill="#E1E8F2"/>
<path fill-rule="evenodd" clip-rule="evenodd" d="M15 8C15 7.44772 15.4477 7 16 7C16.5523 7 17 7.44772 17 8V10.083C17.9117 10.2359 18.7536 10.5944 19.4765 11.1093L20.9497 9.63604C21.3403 9.24552 21.9734 9.24551 22.364 9.63604C22.7545 10.0266 22.7545 10.6597 22.364 11.0503L20.8907 12.5235C21.4056 13.2464 21.7641 14.0883 21.917 15H24C24.5523 15 25 15.4477 25 16C25 16.5523 24.5523 17 24 17H21.917C21.7641 17.9117 21.4056 18.7536 20.8907 19.4765L22.364 20.9497C22.7545 21.3403 22.7545 21.9734 22.364 22.364C21.9734 22.7545 21.3403 22.7545 20.9497 22.364L19.4765 20.8907C18.7536 21.4056 17.9117 21.7641 17 21.917V24C17 24.5523 16.5523 25 16 25C15.4477 25 15 24.5523 15 24V21.917C14.0883 21.7641 13.2464 21.4056 12.5235 20.8907L11.0503 22.364C10.6597 22.7545 10.0266 22.7545 9.63604 22.364C9.24552 21.9734 9.24552 21.3403 9.63604 20.9497L11.1093 19.4765C10.5944 18.7536 10.2359 17.9117 10.083 17H8C7.44772 17 7 16.5523 7 16C7 15.4477 7.44772 15 8 15H10.083C10.2359 14.0883 10.5944 13.2464 11.1093 12.5235L9.63604 11.0503C9.24552 10.6597 9.24552 10.0266 9.63604 9.63604C10.0266 9.24551 10.6597 9.24551 11.0503 9.63604L12.5235 11.1093C13.2464 10.5944 14.0883 10.2359 15 10.083V8Z" fill="url(#paint0_linear)"/>
<rect x="13" y="13" width="6" height="6" rx="3" fill="#E1E8F2"/>
<defs>
<linearGradient id="paint0_linear" x1="10.375" y1="7" x2="24.4194" y2="10.2118" gradientUnits="userSpaceOnUse">
<stop stop-color="#89A6BE"/>
<stop offset="0.789654" stop-color="#68869F"/>
</linearGradient>
</defs>
</svg>
