<svg width="36" height="36" viewBox="0 0 36 36" fill="none" xmlns="http://www.w3.org/2000/svg">
<path d="M18.704 10.0135C19.6246 10 20.5399 10.008 21.4541 10C21.5095 11.0206 21.8968 12.0601 22.6849 12.7816C23.4715 13.5212 24.5841 13.8597 25.6667 13.9742V16.6589C24.6522 16.6274 23.6329 16.4273 22.7124 16.0133C22.3114 15.8413 21.9379 15.6198 21.5723 15.3933C21.5676 17.3414 21.5808 19.287 21.5591 21.2271C21.5043 22.1591 21.1798 23.0867 20.608 23.8547C19.6879 25.1333 18.091 25.9669 16.4508 25.9929C15.4448 26.0474 14.4398 25.7873 13.5825 25.3083C12.1618 24.5143 11.1621 23.0607 11.0165 21.5006C10.9996 21.1671 10.9938 20.8341 11.008 20.5086C11.1347 19.24 11.7967 18.0264 12.8244 17.2009C13.9893 16.2393 15.621 15.7813 17.1488 16.0523C17.163 17.0399 17.1213 18.0264 17.1213 19.014C16.4234 18.8 15.6078 18.86 14.9979 19.2615C14.5527 19.535 14.2145 19.954 14.0383 20.4281C13.8927 20.7661 13.9344 21.1416 13.9428 21.5006C14.1101 22.5947 15.22 23.5142 16.4049 23.4147C17.1905 23.4067 17.9433 22.9747 18.3527 22.3422C18.4851 22.1206 18.6333 21.8941 18.6412 21.6336C18.7103 20.4411 18.6829 19.2535 18.6913 18.0609C18.6971 15.3733 18.6829 12.6931 18.7045 10.014L18.704 10.0135Z" fill="url(#paint0_linear_1_920)"/>
<defs>
<linearGradient id="paint0_linear_1_920" x1="11.5" y1="10.5" x2="18.3333" y2="26" gradientUnits="userSpaceOnUse">
<stop stop-color="#89A6BE"/>
<stop offset="1" stop-color="#67869F"/>
</linearGradient>
</defs>
</svg>
