<svg width="24" height="24" viewBox="0 0 24 24" fill="none" xmlns="http://www.w3.org/2000/svg">
<path fill-rule="evenodd" clip-rule="evenodd" d="M12 3.75C10.3411 3.75 8.875 5.25613 8.875 7.27122C8.875 9.2863 10.3411 10.7924 12 10.7924C13.6589 10.7924 15.125 9.2863 15.125 7.27122C15.125 5.25613 13.6589 3.75 12 3.75ZM7.375 7.27122C7.375 4.56845 9.37865 2.25 12 2.25C14.6214 2.25 16.625 4.56845 16.625 7.27122C16.625 9.97398 14.6214 12.2924 12 12.2924C9.37865 12.2924 7.375 9.97398 7.375 7.27122ZM7.07532 16.4716C5.70008 17.2714 5 18.248 5 19.1455C5 19.5644 5.13778 19.7491 5.33746 19.8801C5.60117 20.0532 6.05328 20.1756 6.75086 20.2246C7.43195 20.2725 8.24024 20.2455 9.14876 20.2028C9.28736 20.1962 9.42814 20.1894 9.57073 20.1824C10.3472 20.1445 11.1773 20.104 12 20.104C12.8227 20.104 13.6528 20.1445 14.4293 20.1824C14.5719 20.1894 14.7126 20.1962 14.8512 20.2028C15.7598 20.2455 16.568 20.2725 17.2491 20.2246C17.9467 20.1756 18.3988 20.0532 18.6625 19.8801C18.8622 19.7491 19 19.5644 19 19.1455C19 18.248 18.2999 17.2714 16.9247 16.4716C15.583 15.6913 13.7766 15.1972 12 15.1972C10.2234 15.1972 8.41703 15.6913 7.07532 16.4716ZM6.32121 15.1749C7.90334 14.2548 9.972 13.6972 12 13.6972C14.028 13.6972 16.0967 14.2548 17.6788 15.1749C19.2274 16.0756 20.5 17.4481 20.5 19.1455C20.5 20.024 20.1446 20.7016 19.4856 21.1341C18.8907 21.5247 18.1187 21.6672 17.3543 21.721C16.5735 21.7758 15.6821 21.7435 14.7808 21.7011C14.637 21.6943 14.4927 21.6873 14.348 21.6803C13.5708 21.6424 12.7828 21.604 12 21.604C11.2172 21.604 10.4292 21.6424 9.65201 21.6803C9.50734 21.6873 9.36304 21.6943 9.21921 21.7011C8.31792 21.7435 7.4265 21.7758 6.64567 21.721C5.88133 21.6672 5.1093 21.5247 4.51436 21.1341C3.8554 20.7016 3.5 20.024 3.5 19.1455C3.5 17.4481 4.77261 16.0756 6.32121 15.1749Z" fill="#1A1C21"/>
</svg>
