<svg width="16" height="16" viewBox="0 0 16 16" fill="none" xmlns="http://www.w3.org/2000/svg">
<path d="M15.5363 3.53283C15.2387 2.56274 14.6494 1.79645 13.7864 1.25434C12.6971 0.56821 11.4441 0.326366 10.3623 0.178271C8.86526 -0.02553 7.50961 -0.054062 6.21647 0.0899574C5.00517 0.225825 4.09297 0.441853 3.26114 0.791032C1.6302 1.4758 0.651036 2.58312 0.351931 4.08173C0.206099 4.80998 0.107886 5.46758 0.0513387 6.09528C-0.0796126 7.54635 0.0394341 8.83029 0.414431 10.0205C0.7805 11.1808 1.41889 12.0096 2.3668 12.5544C2.60787 12.693 2.91739 12.7935 3.21649 12.89C3.38613 12.9443 3.55131 12.9973 3.68673 13.0558C3.81173 13.1087 3.81173 13.1183 3.81024 13.2134C3.79982 14.0381 3.81024 15.6549 3.81024 15.6549L3.81321 16H4.49178L4.6019 15.9022C4.67481 15.8397 6.35635 14.356 6.95605 13.7582L7.03789 13.6753C7.14057 13.5666 7.14057 13.5666 7.24622 13.5653C8.05574 13.5503 8.88312 13.5218 9.70454 13.481C10.7001 13.4321 11.8533 13.3438 12.9396 12.9308C13.9337 12.5517 14.6599 11.9498 15.0959 11.1427C15.5512 10.3004 15.8206 9.3887 15.9218 8.35476C16.1003 6.53685 15.9738 4.95944 15.5363 3.53283ZM11.956 10.602C11.706 10.9729 11.334 11.2311 10.895 11.3982C10.5736 11.5205 10.2462 11.4946 9.92924 11.3724C7.27599 10.3466 5.19416 8.73111 3.81917 6.40778C3.53494 5.92953 3.33852 5.4078 3.11233 4.90237C3.0662 4.79911 3.06917 4.67683 3.04834 4.5627C3.06768 3.74614 3.75369 3.28555 4.44714 3.14697C4.71202 3.09262 4.94713 3.17822 5.14356 3.35077C5.6882 3.82359 6.11826 4.37385 6.44266 4.99068C6.58403 5.26106 6.52004 5.50019 6.27897 5.70127C6.22837 5.74339 6.17629 5.78143 6.12123 5.81947C5.57064 6.19719 5.49028 6.48386 5.78344 7.05315C6.28343 8.02188 7.11378 8.67268 8.18669 9.07621C8.46943 9.18219 8.7358 9.1292 8.95157 8.91996C8.98133 8.89279 9.01407 8.86562 9.0349 8.83301C9.45752 8.189 10.0721 8.25286 10.6391 8.6197C11.0111 8.86154 11.3727 9.11697 11.7402 9.36289C12.3012 9.73924 12.2968 10.0925 11.956 10.602ZM8.43669 4.17412C8.31169 4.17412 8.18669 4.18363 8.06318 4.20266C7.85485 4.23391 7.65991 4.10619 7.6242 3.91598C7.58997 3.72712 7.72985 3.54778 7.93818 3.51653C8.10187 3.49071 8.27003 3.47848 8.43669 3.47848C10.087 3.47848 11.4292 4.70401 11.4292 6.21077C11.4292 6.3643 11.4158 6.51783 11.3876 6.66593C11.3563 6.83576 11.1956 6.95668 11.0126 6.95668C10.9917 6.95668 10.9709 6.95532 10.9486 6.95125C10.7417 6.92 10.6019 6.74065 10.6361 6.5518C10.6569 6.44039 10.6673 6.32626 10.6673 6.21077C10.6673 5.08851 9.66585 4.17412 8.43669 4.17412ZM10.2864 6.26104C10.2864 6.45262 10.1152 6.60886 9.90543 6.60886C9.69561 6.60886 9.52448 6.45262 9.52448 6.26104C9.52448 5.68632 9.01109 5.21758 8.38163 5.21758C8.17181 5.21758 8.00068 5.06134 8.00068 4.86976C8.00068 4.67819 8.17181 4.52194 8.38163 4.52194C9.43222 4.52194 10.2864 5.30182 10.2864 6.26104ZM12.462 7.03413C12.4218 7.19581 12.264 7.3045 12.0899 7.3045C12.0617 7.3045 12.0334 7.30178 12.0051 7.29635C11.7998 7.25287 11.6718 7.06673 11.7179 6.87924C11.773 6.65777 11.8012 6.42816 11.8012 6.19719C11.8012 4.507 10.2938 3.13066 8.44264 3.13066C8.18967 3.13066 7.93818 3.15648 7.69562 3.20675C7.49027 3.25023 7.2864 3.13202 7.24027 2.94453C7.19265 2.75703 7.32212 2.57089 7.52747 2.52877C7.82509 2.46627 8.13312 2.43502 8.44264 2.43502C10.7149 2.43502 12.5631 4.12249 12.5631 6.19719C12.5631 6.47979 12.5289 6.76103 12.462 7.03413Z" fill="#B5BFCD"/>
</svg>
