<svg width="16" height="16" viewBox="0 0 16 16" fill="none" xmlns="http://www.w3.org/2000/svg">
<path fill-rule="evenodd" clip-rule="evenodd" d="M7.6544 12.3878H8.58955C8.58955 12.3878 8.87203 12.3568 9.01624 12.2013C9.14899 12.0586 9.14474 11.7905 9.14474 11.7905C9.14474 11.7905 9.12647 10.5357 9.70885 10.3509C10.2829 10.1689 11.0201 11.5637 11.8015 12.1C12.3924 12.5058 12.8414 12.4169 12.8414 12.4169L14.9307 12.3878C14.9307 12.3878 16.0236 12.3204 15.5054 11.4611C15.4629 11.3908 15.2036 10.8254 13.952 9.66365C12.6419 8.44773 12.8174 8.6444 14.3954 6.54111C15.3565 5.26019 15.7407 4.47817 15.6207 4.14323C15.5062 3.82422 14.7994 3.90854 14.7994 3.90854L12.447 3.9232C12.447 3.9232 12.2726 3.89941 12.1433 3.97672C12.0169 4.05254 11.9355 4.22925 11.9355 4.22925C11.9355 4.22925 11.5632 5.22047 11.0667 6.06344C10.0191 7.8422 9.60031 7.93608 9.42913 7.82564C9.0309 7.56822 9.1303 6.79151 9.1303 6.23973C9.1303 4.51598 9.39175 3.79725 8.6212 3.6112C8.36548 3.54939 8.17731 3.50861 7.52336 3.50203C6.68399 3.49332 5.97355 3.50458 5.57129 3.70167C5.30368 3.83272 5.09723 4.12475 5.22297 4.14153C5.37844 4.16235 5.73058 4.23647 5.91727 4.4907C6.15833 4.81863 6.14984 5.5552 6.14984 5.5552C6.14984 5.5552 6.28831 7.58436 5.82637 7.83647C5.50927 8.00935 5.0743 7.65636 4.14042 6.04263C3.66191 5.21601 3.30063 4.30231 3.30063 4.30231C3.30063 4.30231 3.23097 4.13155 3.10672 4.04022C2.95592 3.92957 2.74523 3.89431 2.74523 3.89431L0.509834 3.90897C0.509834 3.90897 0.174259 3.91831 0.0510728 4.06422C-0.0585201 4.19399 0.0423649 4.46245 0.0423649 4.46245C0.0423649 4.46245 1.79245 8.55689 3.77405 10.6203C5.59104 12.512 7.6544 12.3878 7.6544 12.3878Z" fill="#E1E8F2"/>
</svg>
