<svg width="48" height="24" viewBox="0 0 48 24" fill="none" xmlns="http://www.w3.org/2000/svg">
<g opacity="0.75">
<path d="M22.3178 15.373H19.4258V13.5901H20.1588V14.6791H22.0863C22.4043 14.6791 22.4624 14.4384 22.4624 14.1976V12.6935C22.4624 12.3949 22.4139 12.2597 22.0863 12.2597H20.3038C19.6866 12.2597 19.4351 11.9034 19.4351 11.3156V9.62888C19.4351 8.84847 19.7925 8.62637 20.4767 8.62637H23.2431V10.3425H22.5004V9.32999H20.7175C20.3712 9.32999 20.2833 9.54241 20.2833 9.7925V11.2094C20.2833 11.4118 20.3224 11.5761 20.6012 11.5761H22.3949C22.9927 11.5761 23.2808 11.8072 23.2808 12.3949V14.5155C23.2808 15.123 22.8183 15.373 22.3178 15.373Z" fill="#5C6A79"/>
<path d="M27.4389 11.5662V12.2702H25.3762V14.6699H27.5053V13.5906H28.2384V15.3735H23.9883V14.6699H24.5563V9.33012H23.9883V8.62685H28.2384V10.371H27.5053V9.33012H25.3762V11.5662H27.4389Z" fill="#5C6A79"/>
<path d="M29.9001 15.373C29.1968 15.373 28.9844 14.8427 28.9844 14.3612V9.63821C28.9844 9.08923 29.2359 8.62637 29.9973 8.62637H32.7623V10.3709H32.0307V9.32999H30.1706C29.9298 9.32999 29.8039 9.44553 29.8039 9.73509V14.2647C29.8039 14.5248 29.8527 14.6698 30.1706 14.6698H32.0493V13.5901H32.7827V15.373H29.9001Z" fill="#5C6A79"/>
<path d="M36.4853 11.5662C36.7842 11.5662 36.8413 11.3638 36.8413 11.1328V9.7833C36.8413 9.53249 36.7842 9.33012 36.5234 9.33012H34.7121V11.5662H36.4853ZM34.7121 14.6699H35.2801V15.3735H33.3242V14.6699H33.9015V9.33012H33.3242V8.62685H36.7652C37.4688 8.62685 37.6608 9.04128 37.6608 9.46539V11.1618C37.6608 11.6818 37.3145 11.7786 37.1699 11.8267V11.8558C37.3145 11.8942 37.7379 11.962 37.7379 12.5687V14.6699H38.3737V15.3735H36.3691V14.6699H36.9195V12.6936C36.9195 12.4338 36.8804 12.2121 36.5435 12.2121H34.7121V14.6699Z" fill="#5C6A79"/>
<path d="M42.0327 11.5662V12.2702H39.9699V14.6699H42.0991V13.5906H42.8321V15.3735H38.582V14.6699H39.15V9.33012H38.582V8.62685H42.8321V10.371H42.0991V9.33012H39.9699V11.5662H42.0327Z" fill="#5C6A79"/>
<path d="M46.8354 10.6217V9.32999H45.8128V14.6698H46.5839V15.373H44.214V14.6698H44.9944V9.32999H43.9624V10.6217H43.2305V8.62637H47.5674V10.6217H46.8354Z" fill="#5C6A79"/>
<path d="M15.3486 10.7567V8.8112C15.3486 8.41364 15.2991 8.25971 15.0551 8.28376L13.5352 8.4341V11.3638L15.0221 11.3329C15.2732 11.3279 15.3486 11.0484 15.3486 10.7567Z" fill="#5C6A79"/>
<path d="M15.0795 12.2128L13.5352 12.21V15.4299L14.9629 15.5555C15.3662 15.591 15.3909 15.394 15.3909 14.957V12.8235C15.3909 12.4514 15.3235 12.2132 15.0795 12.2128Z" fill="#5C6A79"/>
<path d="M16.1037 14.9268C16.1037 16.1417 15.9268 16.6207 15.0025 16.5167L12.324 16.2149V15.3233L12.8192 15.3667V8.50448L12.324 8.55364V7.662L15.1123 7.31754C15.7922 7.23358 16.0614 7.65913 16.0614 8.75063V10.6236C16.0614 11.1769 15.8184 11.638 15.5579 11.6943V11.7478C15.8088 11.7987 16.1037 12.1335 16.1037 12.8626V14.9268ZM11.8027 9.90563L11.1647 9.94546V8.6681L9.30786 8.85181V11.4507L11.1058 11.4133V12.2763L9.30786 12.2687V15.0578L11.1647 15.2214V13.8967L11.8027 13.9286V16.1564L8.09831 15.7391V14.9516L8.59347 14.995V8.9225L8.09831 8.97129V8.18371L11.8027 7.72623V9.90563ZM7.66415 9.01435L7.0348 9.07642L5.92644 15.4944L5.13635 15.4058L4.29566 10.042L4.2709 10.0441L3.27126 15.1956L2.51561 15.1105L1.58306 9.61571L1.00287 9.67277V9.05992L2.73376 8.84607V9.50197L2.28812 9.54575L2.93506 13.6642L2.97775 13.6667L3.87621 8.70506L4.76606 8.59526L5.55615 13.8827L5.57266 13.8837L6.38751 9.14065L5.90886 9.18801V8.45425L7.66415 8.23717V9.01435ZM0 5.69968V18.8023L17.9727 24V-1.46552e-06L0 5.69968Z" fill="#5C6A79"/>
</g>
</svg>
