<svg width="36" height="36" viewBox="0 0 36 36" fill="none" xmlns="http://www.w3.org/2000/svg">
<g clip-path="url(#clip0_143_14386)">
<path d="M19.5429 19.5429C18.2857 20.84 18.1943 22.4571 18.0857 26C21.3886 26 23.6686 25.9886 24.8457 24.8457C25.9886 23.6686 26 21.28 26 18.0857C22.4571 18.2 20.84 18.2857 19.5429 19.5429V19.5429ZM10 18.0857C10 21.28 10.0114 23.6686 11.1543 24.8457C12.3314 25.9886 14.6114 26 17.9143 26C17.8 22.4571 17.7143 20.84 16.4571 19.5429C15.16 18.2857 13.5429 18.1943 10 18.0857V18.0857ZM17.9143 10C14.6171 10 12.3314 10.0114 11.1543 11.1543C10.0114 12.3314 10 14.72 10 17.9143C13.5429 17.8 15.16 17.7143 16.4571 16.4571C17.7143 15.16 17.8057 13.5429 17.9143 10V10ZM19.5429 16.4571C18.2857 15.16 18.1943 13.5429 18.0857 10C21.3886 10 23.6686 10.0114 24.8457 11.1543C25.9886 12.3314 26 14.72 26 17.9143C22.4571 17.8 20.84 17.7143 19.5429 16.4571" fill="url(#paint0_linear_143_14386)"/>
<path d="M26 18.0857V17.9143C22.4571 17.8 20.84 17.7143 19.5429 16.4571C18.2857 15.16 18.1943 13.5429 18.0857 10H17.9143C17.8 13.5429 17.7143 15.16 16.4571 16.4571C15.16 17.7143 13.5429 17.8057 10 17.9143V18.0857C13.5429 18.2 15.16 18.2857 16.4571 19.5429C17.7143 20.84 17.8057 22.4571 17.9143 26H18.0857C18.2 22.4571 18.2857 20.84 19.5429 19.5429C20.84 18.2857 22.4571 18.1943 26 18.0857" fill="white"/>
</g>
<defs>
<linearGradient id="paint0_linear_143_14386" x1="13" y1="10" x2="25.4839" y2="12.8549" gradientUnits="userSpaceOnUse">
<stop stop-color="#89A6BE"/>
<stop offset="0.789654" stop-color="#68869F"/>
</linearGradient>
<clipPath id="clip0_143_14386">
<rect width="16" height="16" fill="white" transform="translate(10 10)"/>
</clipPath>
</defs>
</svg>
