<svg width="16" height="16" viewBox="0 0 16 16" fill="none" xmlns="http://www.w3.org/2000/svg">
<path fill-rule="evenodd" clip-rule="evenodd" d="M14.2602 2.7489C14.9455 2.93347 15.4859 3.47375 15.6703 4.15917C16.0131 5.41112 15.9999 8.02073 15.9999 8.02073C15.9999 8.02073 15.9999 10.617 15.6705 11.8691C15.4859 12.5544 14.9456 13.0948 14.2602 13.2793C13.0081 13.6088 7.99997 13.6088 7.99997 13.6088C7.99997 13.6088 3.00487 13.6088 1.73974 13.2662C1.05432 13.0816 0.514036 12.5412 0.329466 11.8559C0 10.617 0 8.00754 0 8.00754C0 8.00754 0 5.41112 0.329466 4.15917C0.513914 3.47387 1.0675 2.92029 1.73962 2.73584C2.99169 2.40625 7.99984 2.40625 7.99984 2.40625C7.99984 2.40625 13.0081 2.40625 14.2602 2.7489ZM10.5699 8.00757L6.40527 10.4062V5.60889L10.5699 8.00757Z" fill="url(#paint0_linear)"/>
<defs>
<linearGradient id="paint0_linear" x1="3" y1="2.40625" x2="14.8704" y2="6.28336" gradientUnits="userSpaceOnUse">
<stop stop-color="#89A6BE"/>
<stop offset="0.789654" stop-color="#68869F"/>
</linearGradient>
</defs>
</svg>
